G04 Layer_Physical_Order=3*
G04 Layer_Color=16440176*
%FSLAX24Y24*%
%MOIN*%
G70*
G01*
G75*
%ADD37C,0.0530*%
%ADD38C,0.0330*%
%ADD39C,0.0170*%
%ADD40C,0.0200*%
G36*
X4244Y8704D02*
X4653D01*
X4680Y8654D01*
X4671Y8640D01*
X4656Y8568D01*
X4671Y8496D01*
X4712Y8435D01*
X4773Y8394D01*
X4845Y8379D01*
X4917Y8394D01*
X4956Y8420D01*
X4989Y8371D01*
X5014Y8354D01*
Y8214D01*
X4984Y8184D01*
X4371D01*
X4366Y8210D01*
X4325Y8271D01*
X4264Y8312D01*
X4191Y8326D01*
X4119Y8312D01*
X4058Y8271D01*
X4017Y8210D01*
X4003Y8137D01*
X4017Y8065D01*
X4058Y8004D01*
X4119Y7963D01*
X4191Y7949D01*
X4242Y7959D01*
X4264Y7963D01*
X4296Y7925D01*
X4300Y7904D01*
X4341Y7842D01*
X4344Y7840D01*
Y5603D01*
X4294Y5588D01*
X4271Y5622D01*
X4210Y5662D01*
X4138Y5677D01*
X4066Y5662D01*
X4034Y5641D01*
X4002Y5624D01*
X3970Y5654D01*
X3952Y5681D01*
X3891Y5722D01*
X3819Y5736D01*
X3747Y5722D01*
X3686Y5681D01*
X3645Y5619D01*
X3630Y5547D01*
X3645Y5475D01*
X3686Y5414D01*
X3701Y5404D01*
X3686Y5354D01*
X3684D01*
X3634Y5304D01*
Y4853D01*
X3627Y4847D01*
X3555Y4833D01*
X3518Y4808D01*
X3479Y4834D01*
X3407Y4848D01*
X3335Y4834D01*
X3274Y4793D01*
X3247Y4754D01*
X3163D01*
X3129Y4777D01*
X3057Y4791D01*
X2984Y4777D01*
X2950Y4754D01*
X2829D01*
X2789Y4781D01*
X2717Y4795D01*
X2644Y4781D01*
X2604Y4754D01*
X2571D01*
X2549Y4769D01*
X2476Y4783D01*
X2404Y4769D01*
X2343Y4728D01*
X2302Y4667D01*
X2288Y4594D01*
X2296Y4552D01*
X2285Y4550D01*
X2224Y4509D01*
X2193Y4464D01*
X2190Y4466D01*
X2118Y4480D01*
X2046Y4466D01*
X1985Y4425D01*
X1944Y4364D01*
X1929Y4291D01*
X1944Y4219D01*
X1985Y4158D01*
X2029Y4128D01*
X2019Y4075D01*
X2013Y4074D01*
X1952Y4033D01*
X1929Y4000D01*
X1917Y4002D01*
X1902Y4006D01*
X1897Y4006D01*
X1892Y4007D01*
X1687D01*
Y4734D01*
X2005D01*
X2044Y4742D01*
X2077Y4764D01*
X2099Y4797D01*
X2107Y4836D01*
Y4887D01*
X2151Y4910D01*
X2158Y4906D01*
X2230Y4891D01*
X2302Y4906D01*
X2363Y4947D01*
X2404Y5008D01*
X2419Y5080D01*
X2404Y5152D01*
X2363Y5213D01*
X2329Y5236D01*
X2340Y5289D01*
X2344Y5290D01*
X2405Y5331D01*
X2446Y5392D01*
X2460Y5465D01*
X2446Y5537D01*
X2405Y5598D01*
Y5641D01*
X2407Y5642D01*
X2448Y5703D01*
X2462Y5775D01*
X2448Y5848D01*
X2412Y5901D01*
X2408Y5933D01*
X2412Y5965D01*
X2448Y6018D01*
X2458Y6070D01*
X2508Y6079D01*
X2569Y6120D01*
X2610Y6181D01*
X2624Y6254D01*
X2610Y6326D01*
X2569Y6387D01*
X2508Y6428D01*
X2456Y6438D01*
X2448Y6478D01*
X2411Y6533D01*
X2405Y6552D01*
Y6578D01*
X2411Y6596D01*
X2448Y6652D01*
X2463Y6724D01*
X2448Y6797D01*
X2411Y6852D01*
X2406Y6871D01*
Y6897D01*
X2411Y6915D01*
X2448Y6971D01*
X2463Y7043D01*
X2448Y7115D01*
X2407Y7177D01*
X2405Y7178D01*
Y7221D01*
X2446Y7282D01*
X2460Y7354D01*
X2446Y7427D01*
X2405Y7488D01*
X2344Y7529D01*
X2272Y7543D01*
X2199Y7529D01*
X2157Y7500D01*
X2107Y7524D01*
Y7626D01*
X2157Y7655D01*
X2217Y7643D01*
X2289Y7657D01*
X2350Y7698D01*
X2391Y7759D01*
X2405Y7831D01*
X2391Y7904D01*
X2350Y7965D01*
X2289Y8006D01*
X2217Y8020D01*
X2157Y8008D01*
X2107Y8036D01*
Y8193D01*
X2151Y8217D01*
X2168Y8206D01*
X2240Y8191D01*
X2312Y8206D01*
X2373Y8247D01*
X2414Y8308D01*
X2429Y8380D01*
X2426Y8391D01*
X2442Y8442D01*
X2444Y8444D01*
X2448Y8445D01*
X2461Y8455D01*
X2475Y8464D01*
X2517Y8490D01*
X2544Y8469D01*
X2608Y8443D01*
X2677Y8433D01*
X2746Y8443D01*
X2811Y8469D01*
X2866Y8512D01*
X2882D01*
X2937Y8469D01*
X3002Y8443D01*
X3071Y8433D01*
X3140Y8443D01*
X3205Y8469D01*
X3260Y8512D01*
X3276D01*
X3331Y8469D01*
X3395Y8443D01*
X3465Y8433D01*
X3534Y8443D01*
X3598Y8469D01*
X3654Y8512D01*
X3696Y8567D01*
X3723Y8632D01*
X3732Y8701D01*
X3729Y8722D01*
X3773Y8772D01*
X4244D01*
Y8704D01*
D02*
G37*
G36*
X1520Y1130D02*
X1535D01*
X1550Y1108D01*
X1583Y1086D01*
X1622Y1078D01*
X2601D01*
X2605Y1060D01*
X2645Y998D01*
X2707Y958D01*
X2779Y943D01*
X2851Y958D01*
X2912Y998D01*
X2953Y1060D01*
X2957Y1078D01*
X3391D01*
X3396Y1079D01*
X3401Y1079D01*
X3416Y1083D01*
X3430Y1086D01*
X3435Y1089D01*
X3439Y1090D01*
X3451Y1100D01*
X3463Y1108D01*
X3466Y1112D01*
X3470Y1115D01*
X3477Y1129D01*
X3478Y1130D01*
X3600D01*
Y953D01*
X3564Y865D01*
X3551Y770D01*
X3564Y675D01*
X3596Y597D01*
X3575Y547D01*
X1187D01*
Y3600D01*
X1520D01*
Y1130D01*
D02*
G37*
G36*
X4104Y8984D02*
X4139Y8961D01*
X4180Y8953D01*
X4180Y8953D01*
X5936D01*
X5983Y8906D01*
Y7809D01*
X5933Y7794D01*
X5902Y7840D01*
X5841Y7881D01*
X5769Y7895D01*
X5697Y7881D01*
X5635Y7840D01*
X5595Y7779D01*
X5580Y7707D01*
X5595Y7635D01*
X5635Y7573D01*
X5697Y7532D01*
X5769Y7518D01*
X5841Y7532D01*
X5902Y7573D01*
X5933Y7619D01*
X5983Y7604D01*
Y5930D01*
Y5815D01*
X5933Y5810D01*
X5926Y5844D01*
X5885Y5905D01*
X5824Y5946D01*
X5752Y5960D01*
X5680Y5946D01*
X5624Y5908D01*
X5616Y5905D01*
X5564Y5914D01*
X5539Y5952D01*
X5478Y5993D01*
X5406Y6008D01*
X5333Y5993D01*
X5272Y5952D01*
X5231Y5891D01*
X5217Y5819D01*
X5231Y5747D01*
X5272Y5686D01*
X5333Y5645D01*
X5406Y5630D01*
X5478Y5645D01*
X5534Y5682D01*
X5541Y5685D01*
X5593Y5677D01*
X5619Y5638D01*
X5680Y5597D01*
X5752Y5583D01*
X5824Y5597D01*
X5885Y5638D01*
X5926Y5699D01*
X5934Y5738D01*
X5983Y5740D01*
X5991Y5699D01*
X6014Y5664D01*
X6193Y5486D01*
Y5292D01*
X6143Y5277D01*
X6126Y5303D01*
X6064Y5344D01*
X5992Y5358D01*
X5920Y5344D01*
X5859Y5303D01*
X5818Y5241D01*
X5803Y5169D01*
X5818Y5097D01*
X5859Y5036D01*
X5887Y5017D01*
Y5008D01*
X5846Y4947D01*
X5831Y4875D01*
X5846Y4803D01*
X5887Y4742D01*
X5948Y4701D01*
X5975Y4695D01*
X5997Y4640D01*
X5991Y4631D01*
X5983Y4590D01*
Y1390D01*
X5846D01*
X5814Y1429D01*
X5819Y1450D01*
X5804Y1522D01*
X5763Y1583D01*
X5702Y1624D01*
X5630Y1639D01*
X5558Y1624D01*
X5497Y1583D01*
X5456Y1522D01*
X5441Y1450D01*
X5446Y1429D01*
X5414Y1390D01*
X3689D01*
X3689Y1390D01*
X3674Y1462D01*
X3633Y1523D01*
X3572Y1564D01*
X3500Y1579D01*
X3428Y1564D01*
X3367Y1523D01*
X3326Y1462D01*
X3311Y1390D01*
X3326Y1318D01*
X3367Y1257D01*
X3363Y1208D01*
X3336Y1180D01*
X1632D01*
X1623Y1182D01*
X1622Y1184D01*
Y3243D01*
X2556D01*
X2595Y3251D01*
X2628Y3273D01*
X2650Y3306D01*
X2658Y3345D01*
Y3905D01*
X2650Y3944D01*
X2628Y3977D01*
X2595Y3999D01*
X2577Y4003D01*
Y4267D01*
X2623Y4292D01*
X2627Y4291D01*
X2666Y4233D01*
X2727Y4192D01*
X2799Y4178D01*
X2871Y4192D01*
X2933Y4233D01*
X2973Y4294D01*
X2988Y4366D01*
X2986Y4377D01*
X3028Y4419D01*
X3057Y4414D01*
X3129Y4428D01*
X3190Y4469D01*
X3221Y4515D01*
X3265Y4524D01*
X3280Y4522D01*
X3335Y4485D01*
X3407Y4471D01*
X3479Y4485D01*
X3516Y4510D01*
X3555Y4484D01*
X3627Y4470D01*
X3699Y4484D01*
X3760Y4525D01*
X3791Y4571D01*
X3840Y4576D01*
X3848Y4574D01*
X3869Y4544D01*
X3930Y4503D01*
X4002Y4488D01*
X4074Y4503D01*
X4119Y4533D01*
X4173Y4497D01*
X4245Y4482D01*
X4317Y4497D01*
X4364Y4528D01*
X4398Y4506D01*
X4470Y4491D01*
X4542Y4506D01*
X4603Y4547D01*
X4651Y4530D01*
X4677Y4513D01*
X4749Y4498D01*
X4821Y4513D01*
X4882Y4554D01*
X4923Y4615D01*
X4938Y4687D01*
X4923Y4759D01*
X4882Y4820D01*
X4821Y4861D01*
X4749Y4876D01*
X4677Y4861D01*
X4645Y4840D01*
X4603Y4813D01*
X4542Y4854D01*
X4470Y4869D01*
X4398Y4854D01*
X4351Y4823D01*
X4317Y4845D01*
X4245Y4860D01*
X4173Y4845D01*
X4128Y4815D01*
X4074Y4851D01*
X4002Y4866D01*
X3930Y4851D01*
X3869Y4810D01*
X3839Y4765D01*
X3789Y4759D01*
X3781Y4762D01*
X3760Y4792D01*
X3728Y4814D01*
X3728Y4814D01*
X3731Y4829D01*
X3735Y4843D01*
X3735Y4848D01*
X3736Y4853D01*
Y5115D01*
X3786Y5120D01*
X3794Y5077D01*
X3835Y5016D01*
X3896Y4975D01*
X3968Y4961D01*
X4041Y4975D01*
X4102Y5016D01*
X4143Y5077D01*
X4157Y5150D01*
X4143Y5222D01*
X4128Y5244D01*
X4155Y5294D01*
X4377D01*
Y5507D01*
X4378Y5508D01*
X4383Y5509D01*
X4395Y5517D01*
X4409Y5524D01*
X4412Y5528D01*
X4416Y5531D01*
X4424Y5543D01*
X4434Y5555D01*
X4435Y5559D01*
X4438Y5564D01*
X4441Y5578D01*
X4445Y5593D01*
X4445Y5598D01*
X4446Y5603D01*
Y7764D01*
X4474Y7787D01*
X4546Y7802D01*
X4608Y7842D01*
X4648Y7904D01*
X4663Y7976D01*
X4652Y8032D01*
X4682Y8082D01*
X4984D01*
X5023Y8089D01*
X5056Y8112D01*
X5086Y8142D01*
X5108Y8175D01*
X5116Y8214D01*
Y8354D01*
X5114Y8364D01*
Y8374D01*
X5110Y8383D01*
X5108Y8393D01*
X5103Y8401D01*
X5099Y8410D01*
X5092Y8417D01*
X5086Y8426D01*
X5078Y8431D01*
X5071Y8438D01*
X5062Y8444D01*
X5041Y8476D01*
X5027Y8490D01*
Y8534D01*
X5034Y8568D01*
X5027Y8602D01*
Y8744D01*
X4911D01*
X4845Y8757D01*
X4779Y8744D01*
X4747D01*
X4743Y8752D01*
X4733Y8763D01*
X4725Y8776D01*
X4721Y8779D01*
X4718Y8782D01*
X4704Y8789D01*
X4692Y8798D01*
X4687Y8799D01*
X4683Y8801D01*
X4668Y8803D01*
X4653Y8806D01*
X4339D01*
X4338Y8811D01*
X4316Y8844D01*
X4283Y8866D01*
X4244Y8874D01*
X4059D01*
X4047Y8890D01*
X3992Y8932D01*
X3927Y8959D01*
X3858Y8968D01*
X3789Y8959D01*
X3725Y8932D01*
X3669Y8890D01*
X3654D01*
X3598Y8932D01*
X3534Y8959D01*
X3465Y8968D01*
X3420Y8962D01*
X3370Y8998D01*
Y9244D01*
X3434D01*
X3449Y9234D01*
X3486Y9218D01*
X3563Y9203D01*
X3573D01*
X3583Y9201D01*
X3593Y9203D01*
X3603D01*
X3679Y9218D01*
X3716Y9234D01*
X3731Y9244D01*
X3845D01*
X4104Y8984D01*
D02*
G37*
G36*
X2350Y8589D02*
X2337Y8578D01*
X2300Y8557D01*
X2240Y8569D01*
X2168Y8554D01*
X2140Y8536D01*
X1995D01*
X2005Y8526D01*
Y8036D01*
Y7524D01*
Y4887D01*
X2005Y4887D01*
X2005D01*
Y4846D01*
X2004Y4838D01*
X1995Y4836D01*
X1585D01*
Y4734D01*
Y4007D01*
Y3905D01*
X1892D01*
X1896Y3900D01*
X1911Y3828D01*
X1952Y3767D01*
X2013Y3726D01*
X2085Y3711D01*
X2157Y3726D01*
X2218Y3767D01*
X2259Y3828D01*
X2274Y3900D01*
X2278Y3905D01*
X2556D01*
Y3345D01*
X1622D01*
Y3600D01*
X1614Y3639D01*
X1592Y3672D01*
X1559Y3694D01*
X1556Y3695D01*
Y3713D01*
X1535Y3699D01*
X1520Y3702D01*
X1187D01*
Y4488D01*
X1200Y4498D01*
X1272Y4513D01*
X1334Y4554D01*
X1374Y4615D01*
X1389Y4687D01*
X1374Y4759D01*
X1334Y4820D01*
X1272Y4861D01*
X1200Y4876D01*
X1128Y4861D01*
X1067Y4820D01*
X1054Y4802D01*
X1005Y4797D01*
X957Y4844D01*
Y5054D01*
X996Y5086D01*
X1029Y5079D01*
X1101Y5094D01*
X1162Y5135D01*
X1203Y5196D01*
X1218Y5268D01*
X1203Y5340D01*
X1162Y5401D01*
X1101Y5442D01*
X1029Y5457D01*
X1024Y5456D01*
X977Y5493D01*
X976Y5524D01*
X1115Y5664D01*
X1180Y5658D01*
X1187Y5647D01*
X1248Y5606D01*
X1321Y5591D01*
X1393Y5606D01*
X1454Y5647D01*
X1495Y5708D01*
X1509Y5780D01*
X1495Y5852D01*
X1454Y5913D01*
X1393Y5954D01*
X1321Y5969D01*
X1248Y5954D01*
X1227Y5940D01*
X1177Y5967D01*
Y8701D01*
X1221Y8725D01*
X1235Y8715D01*
X1307Y8701D01*
X1380Y8715D01*
X1441Y8756D01*
X1482Y8817D01*
X1496Y8890D01*
X1491Y8914D01*
X1523Y8953D01*
X2350D01*
Y8589D01*
D02*
G37*
%LPC*%
G36*
X3244Y6634D02*
X3172Y6619D01*
X3111Y6578D01*
X3070Y6517D01*
X3055Y6445D01*
X3070Y6373D01*
X3111Y6312D01*
X3115Y6308D01*
Y6279D01*
X3075Y6217D01*
X3060Y6145D01*
X3075Y6073D01*
X3115Y6012D01*
X3177Y5971D01*
X3249Y5957D01*
X3321Y5971D01*
X3382Y6012D01*
X3423Y6073D01*
X3437Y6145D01*
X3423Y6217D01*
X3382Y6279D01*
X3377Y6282D01*
Y6312D01*
X3418Y6373D01*
X3433Y6445D01*
X3418Y6517D01*
X3377Y6578D01*
X3316Y6619D01*
X3244Y6634D01*
D02*
G37*
G36*
X3535Y8163D02*
X3463Y8148D01*
X3402Y8108D01*
X3361Y8046D01*
X3347Y7974D01*
X3361Y7902D01*
X3402Y7841D01*
X3428Y7823D01*
X3409Y7776D01*
X3372Y7783D01*
X3300Y7769D01*
X3239Y7728D01*
X3202Y7673D01*
X3177Y7689D01*
X3105Y7704D01*
X3033Y7689D01*
X2972Y7648D01*
X2931Y7587D01*
X2916Y7515D01*
X2931Y7443D01*
X2972Y7382D01*
X3033Y7341D01*
X3071Y7333D01*
X3066Y7310D01*
X3081Y7238D01*
X3122Y7177D01*
X3183Y7136D01*
X3255Y7121D01*
X3327Y7136D01*
X3388Y7177D01*
X3429Y7238D01*
X3444Y7310D01*
X3432Y7367D01*
X3440Y7399D01*
X3458Y7429D01*
X3506Y7461D01*
X3547Y7522D01*
X3561Y7595D01*
X3547Y7667D01*
X3506Y7728D01*
X3479Y7746D01*
X3499Y7793D01*
X3535Y7786D01*
X3607Y7800D01*
X3669Y7841D01*
X3709Y7902D01*
X3724Y7974D01*
X3709Y8046D01*
X3669Y8108D01*
X3607Y8148D01*
X3535Y8163D01*
D02*
G37*
G36*
X2920Y5679D02*
X2848Y5664D01*
X2787Y5623D01*
X2746Y5562D01*
X2732Y5490D01*
X2746Y5418D01*
X2787Y5357D01*
X2848Y5316D01*
X2920Y5301D01*
X2993Y5316D01*
X3054Y5357D01*
X3095Y5418D01*
X3109Y5490D01*
X3095Y5562D01*
X3054Y5623D01*
X2993Y5664D01*
X2920Y5679D01*
D02*
G37*
G36*
X3429Y3634D02*
X3357Y3619D01*
X3296Y3578D01*
X3255Y3517D01*
X3241Y3445D01*
X3255Y3373D01*
X3296Y3312D01*
X3357Y3271D01*
X3429Y3256D01*
X3501Y3271D01*
X3563Y3312D01*
X3603Y3373D01*
X3618Y3445D01*
X3603Y3517D01*
X3563Y3578D01*
X3501Y3619D01*
X3429Y3634D01*
D02*
G37*
G36*
Y3141D02*
X3357Y3127D01*
X3296Y3086D01*
X3255Y3025D01*
X3241Y2953D01*
X3255Y2881D01*
X3296Y2819D01*
X3357Y2778D01*
X3429Y2764D01*
X3501Y2778D01*
X3563Y2819D01*
X3603Y2881D01*
X3618Y2953D01*
X3603Y3025D01*
X3563Y3086D01*
X3501Y3127D01*
X3429Y3141D01*
D02*
G37*
G36*
X4417Y3634D02*
X4345Y3619D01*
X4284Y3578D01*
X4243Y3517D01*
X4229Y3445D01*
X4243Y3373D01*
X4284Y3312D01*
X4345Y3271D01*
X4417Y3256D01*
X4490Y3271D01*
X4551Y3312D01*
X4592Y3373D01*
X4606Y3445D01*
X4592Y3517D01*
X4551Y3578D01*
X4490Y3619D01*
X4417Y3634D01*
D02*
G37*
G36*
X3921D02*
X3849Y3619D01*
X3788Y3578D01*
X3747Y3517D01*
X3733Y3445D01*
X3747Y3373D01*
X3788Y3312D01*
X3849Y3271D01*
X3921Y3256D01*
X3993Y3271D01*
X4055Y3312D01*
X4096Y3373D01*
X4110Y3445D01*
X4096Y3517D01*
X4055Y3578D01*
X3993Y3619D01*
X3921Y3634D01*
D02*
G37*
G36*
X5084Y2670D02*
X5012Y2655D01*
X4951Y2614D01*
X4910Y2553D01*
X4896Y2481D01*
X4910Y2409D01*
X4951Y2348D01*
X5012Y2307D01*
X5084Y2292D01*
X5157Y2307D01*
X5218Y2348D01*
X5259Y2409D01*
X5273Y2481D01*
X5259Y2553D01*
X5218Y2614D01*
X5157Y2655D01*
X5084Y2670D01*
D02*
G37*
G36*
X2462Y3182D02*
X2364Y3163D01*
X2281Y3108D01*
X2226Y3025D01*
X2207Y2928D01*
X2226Y2830D01*
X2275Y2756D01*
X2281Y2708D01*
X2272Y2693D01*
X2217Y2612D01*
X2198Y2514D01*
X2217Y2416D01*
X2273Y2334D01*
X2355Y2279D01*
X2453Y2259D01*
X2550Y2279D01*
X2633Y2334D01*
X2688Y2416D01*
X2708Y2514D01*
X2688Y2612D01*
X2639Y2685D01*
X2634Y2734D01*
X2642Y2748D01*
X2697Y2830D01*
X2716Y2928D01*
X2697Y3025D01*
X2642Y3108D01*
X2559Y3163D01*
X2462Y3182D01*
D02*
G37*
G36*
X4417Y3137D02*
X4345Y3123D01*
X4284Y3082D01*
X4243Y3021D01*
X4229Y2949D01*
X4243Y2877D01*
X4284Y2815D01*
X4345Y2775D01*
X4417Y2760D01*
X4490Y2775D01*
X4551Y2815D01*
X4592Y2877D01*
X4606Y2949D01*
X4592Y3021D01*
X4551Y3082D01*
X4490Y3123D01*
X4417Y3137D01*
D02*
G37*
G36*
X3921D02*
X3849Y3123D01*
X3788Y3082D01*
X3747Y3021D01*
X3733Y2949D01*
X3747Y2877D01*
X3788Y2815D01*
X3849Y2775D01*
X3921Y2760D01*
X3993Y2775D01*
X4055Y2815D01*
X4096Y2877D01*
X4110Y2949D01*
X4096Y3021D01*
X4055Y3082D01*
X3993Y3123D01*
X3921Y3137D01*
D02*
G37*
G36*
X4755Y5719D02*
X4683Y5704D01*
X4622Y5663D01*
X4581Y5602D01*
X4566Y5530D01*
X4581Y5458D01*
X4622Y5397D01*
X4683Y5356D01*
X4755Y5341D01*
X4827Y5356D01*
X4888Y5397D01*
X4929Y5458D01*
X4944Y5530D01*
X4929Y5602D01*
X4888Y5663D01*
X4827Y5704D01*
X4755Y5719D01*
D02*
G37*
G36*
X5378Y7721D02*
X5306Y7706D01*
X5245Y7665D01*
X5204Y7604D01*
X5189Y7532D01*
X5204Y7460D01*
X5245Y7399D01*
X5306Y7358D01*
X5378Y7343D01*
X5450Y7358D01*
X5511Y7399D01*
X5552Y7460D01*
X5567Y7532D01*
X5552Y7604D01*
X5511Y7665D01*
X5450Y7706D01*
X5378Y7721D01*
D02*
G37*
G36*
X3429Y4126D02*
X3357Y4111D01*
X3296Y4070D01*
X3255Y4009D01*
X3241Y3937D01*
X3255Y3865D01*
X3296Y3804D01*
X3357Y3763D01*
X3429Y3748D01*
X3501Y3763D01*
X3563Y3804D01*
X3603Y3865D01*
X3618Y3937D01*
X3603Y4009D01*
X3563Y4070D01*
X3501Y4111D01*
X3429Y4126D01*
D02*
G37*
G36*
X5272Y3941D02*
X5199Y3926D01*
X5138Y3885D01*
X5097Y3824D01*
X5083Y3752D01*
X5097Y3680D01*
X5138Y3619D01*
X5199Y3578D01*
X5272Y3563D01*
X5344Y3578D01*
X5405Y3619D01*
X5410Y3626D01*
X5470D01*
X5488Y3600D01*
X5549Y3559D01*
X5621Y3545D01*
X5693Y3559D01*
X5754Y3600D01*
X5795Y3661D01*
X5810Y3733D01*
X5795Y3805D01*
X5754Y3867D01*
X5693Y3908D01*
X5621Y3922D01*
X5549Y3908D01*
X5488Y3867D01*
X5483Y3859D01*
X5423D01*
X5405Y3885D01*
X5344Y3926D01*
X5272Y3941D01*
D02*
G37*
G36*
X4417Y4126D02*
X4345Y4111D01*
X4284Y4070D01*
X4243Y4009D01*
X4229Y3937D01*
X4243Y3865D01*
X4284Y3804D01*
X4345Y3763D01*
X4417Y3748D01*
X4490Y3763D01*
X4551Y3804D01*
X4592Y3865D01*
X4606Y3937D01*
X4592Y4009D01*
X4551Y4070D01*
X4490Y4111D01*
X4417Y4126D01*
D02*
G37*
G36*
X3921D02*
X3849Y4111D01*
X3788Y4070D01*
X3747Y4009D01*
X3733Y3937D01*
X3747Y3865D01*
X3788Y3804D01*
X3849Y3763D01*
X3921Y3748D01*
X3993Y3763D01*
X4055Y3804D01*
X4096Y3865D01*
X4110Y3937D01*
X4096Y4009D01*
X4055Y4070D01*
X3993Y4111D01*
X3921Y4126D01*
D02*
G37*
%LPD*%
D37*
X5770Y760D02*
D03*
D38*
X2283Y8701D02*
D03*
X3858D02*
D03*
X3832Y9083D02*
D03*
D39*
X1260Y6680D02*
D03*
X5930Y2820D02*
D03*
X5744Y5007D02*
D03*
X1326Y3449D02*
D03*
X5514Y7099D02*
D03*
X2935Y5787D02*
D03*
X1240Y6387D02*
D03*
X1238Y7572D02*
D03*
X5185Y4698D02*
D03*
X1807Y4118D02*
D03*
X2294Y3541D02*
D03*
X4311Y1135D02*
D03*
X4459Y1728D02*
D03*
X5122Y8504D02*
D03*
X2779Y1132D02*
D03*
X1264Y7315D02*
D03*
X3059Y7150D02*
D03*
X4122Y7071D02*
D03*
X4126Y6764D02*
D03*
X4114Y6075D02*
D03*
X4030Y4900D02*
D03*
X4835Y8343D02*
D03*
X1265Y3180D02*
D03*
X4861Y2664D02*
D03*
X4665Y6740D02*
D03*
X1260Y7017D02*
D03*
X2510Y8370D02*
D03*
X1280Y8640D02*
D03*
X2004Y1559D02*
D03*
D40*
X2000Y8730D02*
X2029Y8701D01*
X2283D01*
X3645Y1185D02*
X5425D01*
X5800Y810D01*
X3480Y1020D02*
X3645Y1185D01*
M02*
