G04 Layer_Color=2752767*
%FSLAX24Y24*%
%MOIN*%
G70*
G01*
G75*
%ADD87C,0.0020*%
D87*
X3420Y1310D02*
X3460Y1390D01*
X3420Y1470D01*
X3500Y1430D01*
X3580Y1470D01*
X3540Y1390D01*
X3580Y1310D01*
X3500Y1350D01*
X3420Y1310D01*
X2150Y5000D02*
X2190Y5080D01*
X2150Y5160D01*
X2230Y5120D01*
X2310Y5160D01*
X2270Y5080D01*
X2310Y5000D01*
X2230Y5040D01*
X2150Y5000D01*
X5550Y1370D02*
X5590Y1450D01*
X5550Y1530D01*
X5630Y1490D01*
X5710Y1530D01*
X5670Y1450D01*
X5710Y1370D01*
X5630Y1410D01*
X5550Y1370D01*
X2137Y7751D02*
X2177Y7831D01*
X2137Y7911D01*
X2217Y7871D01*
X2297Y7911D01*
X2257Y7831D01*
X2297Y7751D01*
X2217Y7791D01*
X2137Y7751D01*
X5541Y3653D02*
X5581Y3733D01*
X5541Y3813D01*
X5621Y3773D01*
X5701Y3813D01*
X5661Y3733D01*
X5701Y3653D01*
X5621Y3693D01*
X5541Y3653D01*
X2160Y8300D02*
X2200Y8380D01*
X2160Y8460D01*
X2240Y8420D01*
X2320Y8460D01*
X2280Y8380D01*
X2320Y8300D01*
X2240Y8340D01*
X2160Y8300D01*
X3169Y6065D02*
X3209Y6145D01*
X3169Y6225D01*
X3249Y6185D01*
X3329Y6225D01*
X3289Y6145D01*
X3329Y6065D01*
X3249Y6105D01*
X3169Y6065D01*
X4765Y8488D02*
X4805Y8568D01*
X4765Y8648D01*
X4845Y8608D01*
X4925Y8648D01*
X4885Y8568D01*
X4925Y8488D01*
X4845Y8528D01*
X4765Y8488D01*
X5689Y7627D02*
X5729Y7707D01*
X5689Y7787D01*
X5769Y7747D01*
X5849Y7787D01*
X5809Y7707D01*
X5849Y7627D01*
X5769Y7667D01*
X5689Y7627D01*
X2005Y3820D02*
X2045Y3900D01*
X2005Y3980D01*
X2085Y3940D01*
X2165Y3980D01*
X2125Y3900D01*
X2165Y3820D01*
X2085Y3860D01*
X2005Y3820D01*
X5004Y2401D02*
X5044Y2481D01*
X5004Y2561D01*
X5084Y2521D01*
X5164Y2561D01*
X5124Y2481D01*
X5164Y2401D01*
X5084Y2441D01*
X5004Y2401D01*
X3164Y6365D02*
X3204Y6445D01*
X3164Y6525D01*
X3244Y6485D01*
X3324Y6525D01*
X3284Y6445D01*
X3324Y6365D01*
X3244Y6405D01*
X3164Y6365D01*
X3175Y7230D02*
X3215Y7310D01*
X3175Y7390D01*
X3255Y7350D01*
X3335Y7390D01*
X3295Y7310D01*
X3335Y7230D01*
X3255Y7270D01*
X3175Y7230D01*
X3025Y7435D02*
X3065Y7515D01*
X3025Y7595D01*
X3105Y7555D01*
X3185Y7595D01*
X3145Y7515D01*
X3185Y7435D01*
X3105Y7475D01*
X3025Y7435D01*
X2355Y6174D02*
X2395Y6254D01*
X2355Y6334D01*
X2435Y6294D01*
X2515Y6334D01*
X2475Y6254D01*
X2515Y6174D01*
X2435Y6214D01*
X2355Y6174D01*
X3889Y5070D02*
X3929Y5150D01*
X3889Y5230D01*
X3968Y5190D01*
X4049Y5230D01*
X4008Y5150D01*
X4049Y5070D01*
X3968Y5110D01*
X3889Y5070D01*
X4112Y8057D02*
X4151Y8137D01*
X4112Y8217D01*
X4191Y8177D01*
X4272Y8217D01*
X4232Y8137D01*
X4272Y8057D01*
X4191Y8097D01*
X4112Y8057D01*
X5298Y7452D02*
X5338Y7532D01*
X5298Y7612D01*
X5378Y7572D01*
X5458Y7612D01*
X5418Y7532D01*
X5458Y7452D01*
X5378Y7492D01*
X5298Y7452D01*
X4675Y5450D02*
X4715Y5530D01*
X4675Y5610D01*
X4755Y5570D01*
X4835Y5610D01*
X4795Y5530D01*
X4835Y5450D01*
X4755Y5490D01*
X4675Y5450D01*
X5326Y5739D02*
X5366Y5819D01*
X5326Y5899D01*
X5406Y5859D01*
X5486Y5899D01*
X5446Y5819D01*
X5486Y5739D01*
X5406Y5779D01*
X5326Y5739D01*
X3841Y3857D02*
X3881Y3937D01*
X3841Y4017D01*
X3921Y3977D01*
X4001Y4017D01*
X3961Y3937D01*
X4001Y3857D01*
X3921Y3897D01*
X3841Y3857D01*
X3349D02*
X3389Y3937D01*
X3349Y4017D01*
X3429Y3977D01*
X3509Y4017D01*
X3469Y3937D01*
X3509Y3857D01*
X3429Y3897D01*
X3349Y3857D01*
X4337D02*
X4377Y3937D01*
X4337Y4017D01*
X4417Y3977D01*
X4497Y4017D01*
X4457Y3937D01*
X4497Y3857D01*
X4417Y3897D01*
X4337Y3857D01*
X3349Y2873D02*
X3389Y2953D01*
X3349Y3033D01*
X3429Y2993D01*
X3509Y3033D01*
X3469Y2953D01*
X3509Y2873D01*
X3429Y2913D01*
X3349Y2873D01*
X3841Y2869D02*
X3881Y2949D01*
X3841Y3029D01*
X3921Y2989D01*
X4001Y3029D01*
X3961Y2949D01*
X4001Y2869D01*
X3921Y2909D01*
X3841Y2869D01*
X4337D02*
X4377Y2949D01*
X4337Y3029D01*
X4417Y2989D01*
X4497Y3029D01*
X4457Y2949D01*
X4497Y2869D01*
X4417Y2909D01*
X4337Y2869D01*
X3349Y3365D02*
X3389Y3445D01*
X3349Y3525D01*
X3429Y3485D01*
X3509Y3525D01*
X3469Y3445D01*
X3509Y3365D01*
X3429Y3405D01*
X3349Y3365D01*
X3841D02*
X3881Y3445D01*
X3841Y3525D01*
X3921Y3485D01*
X4001Y3525D01*
X3961Y3445D01*
X4001Y3365D01*
X3921Y3405D01*
X3841Y3365D01*
X4337D02*
X4377Y3445D01*
X4337Y3525D01*
X4417Y3485D01*
X4497Y3525D01*
X4457Y3445D01*
X4497Y3365D01*
X4417Y3405D01*
X4337Y3365D01*
M02*
