G04 Layer_Color=2752767*
%FSLAX24Y24*%
%MOIN*%
G70*
G01*
G75*
%ADD87C,0.0020*%
D87*
X5795Y5427D02*
X5835Y5507D01*
X5795Y5587D01*
X5875Y5547D01*
X5955Y5587D01*
X5915Y5507D01*
X5955Y5427D01*
X5875Y5467D01*
X5795Y5427D01*
X4714Y5070D02*
X4754Y5150D01*
X4714Y5230D01*
X4794Y5190D01*
X4874Y5230D01*
X4834Y5150D01*
X4874Y5070D01*
X4794Y5110D01*
X4714Y5070D01*
X5029Y7266D02*
X5069Y7346D01*
X5029Y7426D01*
X5109Y7386D01*
X5189Y7426D01*
X5149Y7346D01*
X5189Y7266D01*
X5109Y7306D01*
X5029Y7266D01*
X4717Y7271D02*
X4757Y7351D01*
X4717Y7431D01*
X4797Y7391D01*
X4877Y7431D01*
X4837Y7351D01*
X4877Y7271D01*
X4797Y7311D01*
X4717Y7271D01*
X4723Y7903D02*
X4763Y7983D01*
X4723Y8063D01*
X4803Y8023D01*
X4883Y8063D01*
X4843Y7983D01*
X4883Y7903D01*
X4803Y7943D01*
X4723Y7903D01*
X1872Y6007D02*
X1912Y6087D01*
X1872Y6167D01*
X1952Y6127D01*
X2032Y6167D01*
X1992Y6087D01*
X2032Y6007D01*
X1952Y6047D01*
X1872Y6007D01*
X1876Y5700D02*
X1916Y5780D01*
X1876Y5860D01*
X1956Y5820D01*
X2036Y5860D01*
X1996Y5780D01*
X2036Y5700D01*
X1956Y5740D01*
X1876Y5700D01*
X2514Y5697D02*
X2554Y5777D01*
X2514Y5857D01*
X2594Y5817D01*
X2674Y5857D01*
X2634Y5777D01*
X2674Y5697D01*
X2594Y5737D01*
X2514Y5697D01*
X2515Y6331D02*
X2555Y6411D01*
X2515Y6491D01*
X2595Y6451D01*
X2675Y6491D01*
X2635Y6411D01*
X2675Y6331D01*
X2595Y6371D01*
X2515Y6331D01*
X2508Y6005D02*
X2548Y6085D01*
X2508Y6165D01*
X2588Y6125D01*
X2668Y6165D01*
X2628Y6085D01*
X2668Y6005D01*
X2588Y6045D01*
X2508Y6005D01*
X2852Y6022D02*
X2892Y6102D01*
X2852Y6182D01*
X2932Y6142D01*
X3012Y6182D01*
X2972Y6102D01*
X3012Y6022D01*
X2932Y6062D01*
X2852Y6022D01*
X2823Y6325D02*
X2863Y6405D01*
X2823Y6485D01*
X2903Y6445D01*
X2983Y6485D01*
X2943Y6405D01*
X2983Y6325D01*
X2903Y6365D01*
X2823Y6325D01*
X2882Y6708D02*
X2922Y6788D01*
X2882Y6868D01*
X2962Y6828D01*
X3042Y6868D01*
X3002Y6788D01*
X3042Y6708D01*
X2962Y6748D01*
X2882Y6708D01*
X1143Y8318D02*
X1183Y8398D01*
X1143Y8478D01*
X1223Y8438D01*
X1303Y8478D01*
X1263Y8398D01*
X1303Y8318D01*
X1223Y8358D01*
X1143Y8318D01*
X5456Y4623D02*
X5496Y4703D01*
X5456Y4783D01*
X5536Y4743D01*
X5616Y4783D01*
X5576Y4703D01*
X5616Y4623D01*
X5536Y4663D01*
X5456Y4623D01*
X5010Y3233D02*
X5050Y3313D01*
X5010Y3393D01*
X5090Y3353D01*
X5170Y3393D01*
X5130Y3313D01*
X5170Y3233D01*
X5090Y3273D01*
X5010Y3233D01*
X5525Y3190D02*
X5565Y3270D01*
X5525Y3350D01*
X5605Y3310D01*
X5685Y3350D01*
X5645Y3270D01*
X5685Y3190D01*
X5605Y3230D01*
X5525Y3190D01*
X1442Y4075D02*
X1482Y4155D01*
X1442Y4235D01*
X1522Y4195D01*
X1602Y4235D01*
X1562Y4155D01*
X1602Y4075D01*
X1522Y4115D01*
X1442Y4075D01*
X2221Y3706D02*
X2261Y3786D01*
X2221Y3866D01*
X2301Y3826D01*
X2381Y3866D01*
X2341Y3786D01*
X2381Y3706D01*
X2301Y3746D01*
X2221Y3706D01*
X3404Y4129D02*
X3444Y4209D01*
X3404Y4289D01*
X3484Y4249D01*
X3564Y4289D01*
X3524Y4209D01*
X3564Y4129D01*
X3484Y4169D01*
X3404Y4129D01*
X2718Y2330D02*
X2758Y2410D01*
X2718Y2490D01*
X2798Y2450D01*
X2878Y2490D01*
X2838Y2410D01*
X2878Y2330D01*
X2798Y2370D01*
X2718Y2330D01*
X3374Y2188D02*
X3414Y2268D01*
X3374Y2348D01*
X3454Y2308D01*
X3534Y2348D01*
X3494Y2268D01*
X3534Y2188D01*
X3454Y2228D01*
X3374Y2188D01*
X3057Y1056D02*
X3097Y1136D01*
X3057Y1216D01*
X3137Y1176D01*
X3217Y1216D01*
X3177Y1136D01*
X3217Y1056D01*
X3137Y1096D01*
X3057Y1056D01*
X1879Y7270D02*
X1919Y7350D01*
X1879Y7430D01*
X1959Y7390D01*
X2039Y7430D01*
X1999Y7350D01*
X2039Y7270D01*
X1959Y7310D01*
X1879Y7270D01*
X1867Y6959D02*
X1907Y7039D01*
X1867Y7119D01*
X1947Y7079D01*
X2027Y7119D01*
X1987Y7039D01*
X2027Y6959D01*
X1947Y6999D01*
X1867Y6959D01*
X2507Y5385D02*
X2547Y5465D01*
X2507Y5545D01*
X2587Y5505D01*
X2667Y5545D01*
X2627Y5465D01*
X2667Y5385D01*
X2587Y5425D01*
X2507Y5385D01*
X4709Y6958D02*
X4749Y7038D01*
X4709Y7118D01*
X4789Y7078D01*
X4869Y7118D01*
X4829Y7038D01*
X4869Y6958D01*
X4789Y6998D01*
X4709Y6958D01*
X4396Y7271D02*
X4436Y7351D01*
X4396Y7431D01*
X4476Y7391D01*
X4556Y7431D01*
X4516Y7351D01*
X4556Y7271D01*
X4476Y7311D01*
X4396Y7271D01*
X4707Y7586D02*
X4747Y7666D01*
X4707Y7746D01*
X4787Y7706D01*
X4867Y7746D01*
X4827Y7666D01*
X4867Y7586D01*
X4787Y7626D01*
X4707Y7586D01*
X4442Y8270D02*
X4482Y8350D01*
X4442Y8430D01*
X4522Y8390D01*
X4602Y8430D01*
X4562Y8350D01*
X4602Y8270D01*
X4522Y8310D01*
X4442Y8270D01*
X1602Y1086D02*
X1642Y1166D01*
X1602Y1246D01*
X1682Y1206D01*
X1762Y1246D01*
X1722Y1166D01*
X1762Y1086D01*
X1682Y1126D01*
X1602Y1086D01*
X2010Y2005D02*
X2050Y2085D01*
X2010Y2165D01*
X2090Y2125D01*
X2170Y2165D01*
X2130Y2085D01*
X2170Y2005D01*
X2090Y2045D01*
X2010Y2005D01*
X1338Y1992D02*
X1378Y2072D01*
X1338Y2152D01*
X1418Y2112D01*
X1498Y2152D01*
X1458Y2072D01*
X1498Y1992D01*
X1418Y2032D01*
X1338Y1992D01*
X1528Y4623D02*
X1568Y4703D01*
X1528Y4783D01*
X1608Y4743D01*
X1688Y4783D01*
X1648Y4703D01*
X1688Y4623D01*
X1608Y4663D01*
X1528Y4623D01*
X2505Y7591D02*
X2545Y7671D01*
X2505Y7751D01*
X2585Y7711D01*
X2665Y7751D01*
X2625Y7671D01*
X2665Y7591D01*
X2585Y7631D01*
X2505Y7591D01*
X2507Y7274D02*
X2547Y7354D01*
X2507Y7434D01*
X2587Y7394D01*
X2667Y7434D01*
X2627Y7354D01*
X2667Y7274D01*
X2587Y7314D01*
X2507Y7274D01*
X2513Y6957D02*
X2553Y7037D01*
X2513Y7117D01*
X2593Y7077D01*
X2673Y7117D01*
X2633Y7037D01*
X2673Y6957D01*
X2593Y6997D01*
X2513Y6957D01*
X2506Y6641D02*
X2546Y6721D01*
X2506Y6801D01*
X2586Y6761D01*
X2666Y6801D01*
X2626Y6721D01*
X2666Y6641D01*
X2586Y6681D01*
X2506Y6641D01*
X1879Y6637D02*
X1919Y6717D01*
X1879Y6797D01*
X1959Y6757D01*
X2039Y6797D01*
X1999Y6717D01*
X2039Y6637D01*
X1959Y6677D01*
X1879Y6637D01*
X1881Y6333D02*
X1921Y6413D01*
X1881Y6493D01*
X1961Y6453D01*
X2041Y6493D01*
X2001Y6413D01*
X2041Y6333D01*
X1961Y6373D01*
X1881Y6333D01*
X2822Y7274D02*
X2862Y7354D01*
X2822Y7434D01*
X2902Y7394D01*
X2982Y7434D01*
X2942Y7354D01*
X2982Y7274D01*
X2902Y7314D01*
X2822Y7274D01*
X2813Y7589D02*
X2853Y7669D01*
X2813Y7749D01*
X2893Y7709D01*
X2973Y7749D01*
X2933Y7669D01*
X2973Y7589D01*
X2893Y7629D01*
X2813Y7589D01*
X4072Y7292D02*
X4112Y7372D01*
X4072Y7452D01*
X4152Y7412D01*
X4232Y7452D01*
X4192Y7372D01*
X4232Y7292D01*
X4152Y7332D01*
X4072Y7292D01*
X4083Y5697D02*
X4123Y5777D01*
X4083Y5857D01*
X4163Y5817D01*
X4243Y5857D01*
X4203Y5777D01*
X4243Y5697D01*
X4163Y5737D01*
X4083Y5697D01*
X4173Y4290D02*
X4213Y4370D01*
X4173Y4450D01*
X4253Y4410D01*
X4333Y4450D01*
X4293Y4370D01*
X4333Y4290D01*
X4253Y4330D01*
X4173Y4290D01*
X5380Y8345D02*
X5420Y8425D01*
X5380Y8505D01*
X5460Y8465D01*
X5540Y8505D01*
X5500Y8425D01*
X5540Y8345D01*
X5460Y8385D01*
X5380Y8345D01*
X5026Y5696D02*
X5066Y5776D01*
X5026Y5856D01*
X5106Y5816D01*
X5186Y5856D01*
X5146Y5776D01*
X5186Y5696D01*
X5106Y5736D01*
X5026Y5696D01*
X4711D02*
X4751Y5776D01*
X4711Y5856D01*
X4791Y5816D01*
X4871Y5856D01*
X4831Y5776D01*
X4871Y5696D01*
X4791Y5736D01*
X4711Y5696D01*
X5341Y6011D02*
X5381Y6091D01*
X5341Y6171D01*
X5421Y6131D01*
X5501Y6171D01*
X5461Y6091D01*
X5501Y6011D01*
X5421Y6051D01*
X5341Y6011D01*
X5026D02*
X5066Y6091D01*
X5026Y6171D01*
X5106Y6131D01*
X5186Y6171D01*
X5146Y6091D01*
X5186Y6011D01*
X5106Y6051D01*
X5026Y6011D01*
X4711D02*
X4751Y6091D01*
X4711Y6171D01*
X4791Y6131D01*
X4871Y6171D01*
X4831Y6091D01*
X4871Y6011D01*
X4791Y6051D01*
X4711Y6011D01*
X5024Y6958D02*
X5064Y7038D01*
X5024Y7118D01*
X5104Y7078D01*
X5184Y7118D01*
X5144Y7038D01*
X5184Y6958D01*
X5104Y6998D01*
X5024Y6958D01*
Y6643D02*
X5064Y6723D01*
X5024Y6803D01*
X5104Y6763D01*
X5184Y6803D01*
X5144Y6723D01*
X5184Y6643D01*
X5104Y6683D01*
X5024Y6643D01*
X4709D02*
X4749Y6723D01*
X4709Y6803D01*
X4789Y6763D01*
X4869Y6803D01*
X4829Y6723D01*
X4869Y6643D01*
X4789Y6683D01*
X4709Y6643D01*
X4396Y5696D02*
X4436Y5776D01*
X4396Y5856D01*
X4476Y5816D01*
X4556Y5856D01*
X4516Y5776D01*
X4556Y5696D01*
X4476Y5736D01*
X4396Y5696D01*
Y6011D02*
X4436Y6091D01*
X4396Y6171D01*
X4476Y6131D01*
X4556Y6171D01*
X4516Y6091D01*
X4556Y6011D01*
X4476Y6051D01*
X4396Y6011D01*
X5022Y6330D02*
X5062Y6410D01*
X5022Y6490D01*
X5102Y6450D01*
X5182Y6490D01*
X5142Y6410D01*
X5182Y6330D01*
X5102Y6370D01*
X5022Y6330D01*
X4704Y6322D02*
X4744Y6402D01*
X4704Y6482D01*
X4784Y6442D01*
X4864Y6482D01*
X4824Y6402D01*
X4864Y6322D01*
X4784Y6362D01*
X4704Y6322D01*
X4399Y5390D02*
X4439Y5470D01*
X4399Y5550D01*
X4479Y5510D01*
X4559Y5550D01*
X4519Y5470D01*
X4559Y5390D01*
X4479Y5430D01*
X4399Y5390D01*
X1436Y2900D02*
X1476Y2980D01*
X1436Y3060D01*
X1516Y3020D01*
X1596Y3060D01*
X1556Y2980D01*
X1596Y2900D01*
X1516Y2940D01*
X1436Y2900D01*
M02*
