G04 Layer_Color=2752767*
%FSLAX24Y24*%
%MOIN*%
G70*
G01*
G75*
%ADD87C,0.0020*%
D87*
X5850Y2740D02*
X5890Y2820D01*
X5850Y2900D01*
X5930Y2860D01*
X6010Y2900D01*
X5970Y2820D01*
X6010Y2740D01*
X5930Y2780D01*
X5850Y2740D01*
X5664Y4927D02*
X5704Y5007D01*
X5664Y5087D01*
X5744Y5047D01*
X5824Y5087D01*
X5784Y5007D01*
X5824Y4927D01*
X5744Y4967D01*
X5664Y4927D01*
X1246Y3369D02*
X1286Y3449D01*
X1246Y3529D01*
X1326Y3489D01*
X1406Y3529D01*
X1366Y3449D01*
X1406Y3369D01*
X1326Y3409D01*
X1246Y3369D01*
X5434Y7019D02*
X5474Y7099D01*
X5434Y7179D01*
X5514Y7139D01*
X5594Y7179D01*
X5554Y7099D01*
X5594Y7019D01*
X5514Y7059D01*
X5434Y7019D01*
X4379Y1648D02*
X4419Y1728D01*
X4379Y1808D01*
X4459Y1768D01*
X4539Y1808D01*
X4499Y1728D01*
X4539Y1648D01*
X4459Y1688D01*
X4379Y1648D01*
X3950Y4820D02*
X3990Y4900D01*
X3950Y4980D01*
X4030Y4940D01*
X4110Y4980D01*
X4070Y4900D01*
X4110Y4820D01*
X4030Y4860D01*
X3950Y4820D01*
X4585Y6660D02*
X4625Y6740D01*
X4585Y6820D01*
X4665Y6780D01*
X4745Y6820D01*
X4705Y6740D01*
X4745Y6660D01*
X4665Y6700D01*
X4585Y6660D01*
X1924Y1479D02*
X1964Y1559D01*
X1924Y1639D01*
X2004Y1599D01*
X2084Y1639D01*
X2044Y1559D01*
X2084Y1479D01*
X2004Y1519D01*
X1924Y1479D01*
M02*
