G04 Layer_Color=16711935*
%FSLAX24Y24*%
%MOIN*%
G70*
G01*
G75*
%ADD83C,0.0000*%
%ADD84C,0.0000*%
%ADD85C,0.0004*%
D83*
X635Y5570D02*
G03*
X1024Y5965I-6J394D01*
G01*
X1024Y4389D02*
G03*
X633Y4779I-390J0D01*
G01*
X6529Y4773D02*
G03*
X6138Y4382I0J-390D01*
G01*
X6142Y4374D02*
G03*
X6138Y4382I-12J0D01*
G01*
X233Y5170D02*
G03*
X623Y4779I390J0D01*
G01*
X633Y5570D02*
G03*
X233Y5170I0J-400D01*
G01*
X2795Y9110D02*
G03*
X3182Y9497I0J387D01*
G01*
X3583Y9904D02*
G03*
X3182Y9504I0J-401D01*
G01*
X3983Y9504D02*
G03*
X3583Y9904I-401J0D01*
G01*
X3976Y9504D02*
G03*
X4370Y9110I394J0D01*
G01*
X6142Y5957D02*
G03*
X6535Y5564I394J0D01*
G01*
X6933Y5173D02*
G03*
X6542Y5564I-390J0D01*
G01*
X6532Y4773D02*
G03*
X6933Y5173I0J400D01*
G01*
X633Y5570D02*
X637D01*
X1024Y2614D02*
Y4386D01*
X6142Y2614D02*
Y4374D01*
X623Y4779D02*
X633D01*
X1024Y5964D02*
Y9110D01*
X1024D02*
X2795D01*
X3182Y9497D02*
Y9504D01*
X3983Y9504D02*
Y9504D01*
Y9497D02*
Y9504D01*
X4370Y9110D02*
Y9110D01*
X4370Y9110D02*
Y9110D01*
X4370Y9110D02*
X6142D01*
Y5957D02*
Y9110D01*
X6535Y5564D02*
X6542D01*
X6529Y4773D02*
X6532D01*
D84*
X4370Y9110D02*
D03*
Y9110D02*
D03*
D85*
X1024Y392D02*
Y2614D01*
Y392D02*
X5856D01*
X5857Y394D01*
X6142D01*
Y2614D01*
M02*
