M48
;Layer_Color=9474304
;FILE_FORMAT=2:4
INCH,LZ
;TYPE=PLATED
T1F00S00C0.0050
T2F00S00C0.0180
T3F00S00C0.0210
T4F00S00C0.0390
;TYPE=NON_PLATED
T5F00S00C0.0394
%
T01
X0012Y004687
X001029Y005268
X001321Y00578
X00124Y006387
X00126Y00668
X00126Y007017
X001264Y007315
X001238Y007572
X00128Y00864
X001307Y00889
X00251Y00837
X002272Y007354
X002274Y007043
Y006724
X002274Y006405
Y00609
Y005775
X002272Y005465
X00292Y00549
X002935Y005787
X003819Y005547
X004138Y005488
X004114Y006075
X004126Y006764
X004122Y007071
X003059Y00715
X003372Y007595
X003535Y007974
X004474Y007976
X004835Y008343
X005122Y008504
X005752Y005772
X005992Y005169
X00602Y004875
X004749Y004687
X00447Y00468
X004245Y004671
X004002Y004677
X003627Y004659
X003407Y00466
X003057Y004602
X002717Y004606
X002476Y004594
X002357Y004376
X002118Y004291
X002799Y004366
X005272Y003752
T02
X002453Y002514
X002462Y002928
T03
X002283Y008701
X002677
X003071
X003465
X003858
X003832Y009083
T04
X003919Y00077
X00451
X005179Y00076
X00577
T05
X00063Y005173
X006535
X003583Y009504
M30
