M48
;Layer_Color=9474304
;FILE_FORMAT=2:4
INCH,LZ
;TYPE=PLATED
T1F00S00C0.0050
;TYPE=NON_PLATED
%
T01
X001682Y001166
X001418Y002072
X00209Y002085
X002798Y00241
X003454Y002268
X003137Y001136
X003484Y004209
X004253Y00437
X004794Y00515
X004791Y005776
X005106
Y006091
X004791
X004476
Y005776
X004479Y00547
X004163Y005777
X004784Y006402
X004789Y006723
Y007038
X005104
X005109Y007346
X004797Y007351
X004476Y007351
X004152Y007372
X004787Y007666
X004803Y007983
X004522Y00835
X00546Y008425
X005104Y006723
X005102Y00641
X005421Y006091
X005875Y005507
X005536Y004703
X005605Y00327
X00509Y003313
X002301Y003786
X001522Y004155
X001608Y004703
X001956Y00578
X001952Y006087
X001961Y006413
X001959Y006717
X001947Y007039
X001959Y00735
X002587Y007354
X002902
X002893Y007669
X002585Y007671
X002593Y007037
X002586Y006721
X002595Y006411
X002903Y006405
X002932Y006102
X002588Y006085
X002594Y005777
X002587Y005465
X002962Y006788
X001223Y008398
X001516Y00298
M30
