G04 Layer_Color=2752767*
%FSLAX24Y24*%
%MOIN*%
G70*
G01*
G75*
%ADD87C,0.0020*%
%ADD88C,0.0027*%
D87*
X2373Y2434D02*
Y2594D01*
X2533D01*
Y2434D01*
X2373D01*
X2382Y2848D02*
Y3008D01*
X2542D01*
Y2848D01*
X2382D01*
X2283Y8621D02*
X2203Y8781D01*
X2363D01*
X2283Y8621D01*
X3858D02*
X3778Y8781D01*
X3938D01*
X3858Y8621D01*
X630Y5093D02*
X670Y5133D01*
X710D01*
X670Y5173D01*
X710Y5213D01*
X670D01*
X630Y5253D01*
X590Y5213D01*
X550D01*
X590Y5173D01*
X550Y5133D01*
X590D01*
X630Y5093D01*
X3583Y9424D02*
X3623Y9464D01*
X3663D01*
X3623Y9504D01*
X3663Y9544D01*
X3623D01*
X3583Y9584D01*
X3543Y9544D01*
X3503D01*
X3543Y9504D01*
X3503Y9464D01*
X3543D01*
X3583Y9424D01*
X6535Y5093D02*
X6575Y5133D01*
X6615D01*
X6575Y5173D01*
X6615Y5213D01*
X6575D01*
X6535Y5253D01*
X6495Y5213D01*
X6455D01*
X6495Y5173D01*
X6455Y5133D01*
X6495D01*
X6535Y5093D01*
X2677Y8621D02*
X2597Y8781D01*
X2757D01*
X2677Y8621D01*
X3071D02*
X2991Y8781D01*
X3151D01*
X3071Y8621D01*
X3465D02*
X3385Y8781D01*
X3545D01*
X3465Y8621D01*
X3832Y9003D02*
X3752Y9163D01*
X3912D01*
X3832Y9003D01*
X1180Y6600D02*
X1220Y6680D01*
X1180Y6760D01*
X1260Y6720D01*
X1340Y6760D01*
X1300Y6680D01*
X1340Y6600D01*
X1260Y6640D01*
X1180Y6600D01*
X3922Y4597D02*
X3962Y4677D01*
X3922Y4757D01*
X4002Y4717D01*
X4082Y4757D01*
X4042Y4677D01*
X4082Y4597D01*
X4002Y4637D01*
X3922Y4597D01*
X4165Y4591D02*
X4205Y4671D01*
X4165Y4751D01*
X4245Y4711D01*
X4325Y4751D01*
X4285Y4671D01*
X4325Y4591D01*
X4245Y4631D01*
X4165Y4591D01*
X3547Y4579D02*
X3587Y4659D01*
X3547Y4739D01*
X3627Y4699D01*
X3707Y4739D01*
X3667Y4659D01*
X3707Y4579D01*
X3627Y4619D01*
X3547Y4579D01*
X3327Y4580D02*
X3367Y4660D01*
X3327Y4740D01*
X3407Y4700D01*
X3487Y4740D01*
X3447Y4660D01*
X3487Y4580D01*
X3407Y4620D01*
X3327Y4580D01*
X3455Y7894D02*
X3495Y7974D01*
X3455Y8054D01*
X3535Y8014D01*
X3615Y8054D01*
X3575Y7974D01*
X3615Y7894D01*
X3535Y7934D01*
X3455Y7894D01*
X3292Y7515D02*
X3332Y7595D01*
X3292Y7675D01*
X3372Y7635D01*
X3452Y7675D01*
X3412Y7595D01*
X3452Y7515D01*
X3372Y7555D01*
X3292Y7515D01*
X2855Y5707D02*
X2895Y5787D01*
X2855Y5867D01*
X2935Y5827D01*
X3015Y5867D01*
X2975Y5787D01*
X3015Y5707D01*
X2935Y5747D01*
X2855Y5707D01*
X2194Y5695D02*
X2234Y5775D01*
X2194Y5855D01*
X2274Y5815D01*
X2354Y5855D01*
X2314Y5775D01*
X2354Y5695D01*
X2274Y5735D01*
X2194Y5695D01*
X2192Y5385D02*
X2232Y5465D01*
X2192Y5545D01*
X2272Y5505D01*
X2352Y5545D01*
X2312Y5465D01*
X2352Y5385D01*
X2272Y5425D01*
X2192Y5385D01*
X2396Y4514D02*
X2436Y4594D01*
X2396Y4674D01*
X2476Y4634D01*
X2556Y4674D01*
X2516Y4594D01*
X2556Y4514D01*
X2476Y4554D01*
X2396Y4514D01*
X2719Y4286D02*
X2759Y4366D01*
X2719Y4446D01*
X2799Y4406D01*
X2879Y4446D01*
X2839Y4366D01*
X2879Y4286D01*
X2799Y4326D01*
X2719Y4286D01*
X1160Y6307D02*
X1200Y6387D01*
X1160Y6467D01*
X1240Y6427D01*
X1320Y6467D01*
X1280Y6387D01*
X1320Y6307D01*
X1240Y6347D01*
X1160Y6307D01*
X2194Y6010D02*
X2234Y6090D01*
X2194Y6170D01*
X2274Y6130D01*
X2354Y6170D01*
X2314Y6090D01*
X2354Y6010D01*
X2274Y6050D01*
X2194Y6010D01*
X1227Y8810D02*
X1267Y8890D01*
X1227Y8970D01*
X1307Y8930D01*
X1387Y8970D01*
X1347Y8890D01*
X1387Y8810D01*
X1307Y8850D01*
X1227Y8810D01*
X1158Y7492D02*
X1198Y7572D01*
X1158Y7652D01*
X1238Y7612D01*
X1318Y7652D01*
X1278Y7572D01*
X1318Y7492D01*
X1238Y7532D01*
X1158Y7492D01*
X5192Y3672D02*
X5232Y3752D01*
X5192Y3832D01*
X5272Y3792D01*
X5352Y3832D01*
X5312Y3752D01*
X5352Y3672D01*
X5272Y3712D01*
X5192Y3672D01*
X4669Y4607D02*
X4709Y4687D01*
X4669Y4767D01*
X4749Y4727D01*
X4829Y4767D01*
X4789Y4687D01*
X4829Y4607D01*
X4749Y4647D01*
X4669Y4607D01*
X2038Y4211D02*
X2078Y4291D01*
X2038Y4371D01*
X2118Y4331D01*
X2198Y4371D01*
X2158Y4291D01*
X2198Y4211D01*
X2118Y4251D01*
X2038Y4211D01*
X2277Y4296D02*
X2317Y4376D01*
X2277Y4456D01*
X2357Y4416D01*
X2437Y4456D01*
X2397Y4376D01*
X2437Y4296D01*
X2357Y4336D01*
X2277Y4296D01*
X5042Y8424D02*
X5082Y8504D01*
X5042Y8584D01*
X5122Y8544D01*
X5202Y8584D01*
X5162Y8504D01*
X5202Y8424D01*
X5122Y8464D01*
X5042Y8424D01*
X1184Y7235D02*
X1224Y7315D01*
X1184Y7395D01*
X1264Y7355D01*
X1344Y7395D01*
X1304Y7315D01*
X1344Y7235D01*
X1264Y7275D01*
X1184Y7235D01*
X2194Y6963D02*
X2234Y7043D01*
X2194Y7123D01*
X2274Y7083D01*
X2354Y7123D01*
X2314Y7043D01*
X2354Y6963D01*
X2274Y7003D01*
X2194Y6963D01*
X1241Y5700D02*
X1281Y5780D01*
X1241Y5860D01*
X1321Y5820D01*
X1401Y5860D01*
X1361Y5780D01*
X1401Y5700D01*
X1321Y5740D01*
X1241Y5700D01*
X2840Y5410D02*
X2880Y5490D01*
X2840Y5570D01*
X2920Y5530D01*
X3000Y5570D01*
X2960Y5490D01*
X3000Y5410D01*
X2920Y5450D01*
X2840Y5410D01*
X2637Y4526D02*
X2677Y4606D01*
X2637Y4686D01*
X2717Y4646D01*
X2797Y4686D01*
X2757Y4606D01*
X2797Y4526D01*
X2717Y4566D01*
X2637Y4526D01*
X4394Y7896D02*
X4434Y7976D01*
X4394Y8056D01*
X4474Y8016D01*
X4554Y8056D01*
X4514Y7976D01*
X4554Y7896D01*
X4474Y7936D01*
X4394Y7896D01*
X2192Y7274D02*
X2232Y7354D01*
X2192Y7434D01*
X2272Y7394D01*
X2352Y7434D01*
X2312Y7354D01*
X2352Y7274D01*
X2272Y7314D01*
X2192Y7274D01*
X2194Y6644D02*
X2234Y6724D01*
X2194Y6804D01*
X2274Y6764D01*
X2354Y6804D01*
X2314Y6724D01*
X2354Y6644D01*
X2274Y6684D01*
X2194Y6644D01*
X2194Y6325D02*
X2234Y6405D01*
X2194Y6485D01*
X2274Y6445D01*
X2354Y6485D01*
X2314Y6405D01*
X2354Y6325D01*
X2274Y6365D01*
X2194Y6325D01*
X2979Y7070D02*
X3019Y7150D01*
X2979Y7230D01*
X3059Y7190D01*
X3139Y7230D01*
X3099Y7150D01*
X3139Y7070D01*
X3059Y7110D01*
X2979Y7070D01*
X4042Y6991D02*
X4082Y7071D01*
X4042Y7151D01*
X4122Y7111D01*
X4202Y7151D01*
X4162Y7071D01*
X4202Y6991D01*
X4122Y7031D01*
X4042Y6991D01*
X4046Y6684D02*
X4086Y6764D01*
X4046Y6844D01*
X4126Y6804D01*
X4206Y6844D01*
X4166Y6764D01*
X4206Y6684D01*
X4126Y6724D01*
X4046Y6684D01*
X4034Y5995D02*
X4074Y6075D01*
X4034Y6155D01*
X4114Y6115D01*
X4194Y6155D01*
X4154Y6075D01*
X4194Y5995D01*
X4114Y6035D01*
X4034Y5995D01*
X4390Y4600D02*
X4430Y4680D01*
X4390Y4760D01*
X4470Y4720D01*
X4550Y4760D01*
X4510Y4680D01*
X4550Y4600D01*
X4470Y4640D01*
X4390Y4600D01*
X4755Y8263D02*
X4795Y8343D01*
X4755Y8423D01*
X4835Y8383D01*
X4915Y8423D01*
X4875Y8343D01*
X4915Y8263D01*
X4835Y8303D01*
X4755Y8263D01*
X2977Y4522D02*
X3017Y4602D01*
X2977Y4682D01*
X3057Y4642D01*
X3137Y4682D01*
X3097Y4602D01*
X3137Y4522D01*
X3057Y4562D01*
X2977Y4522D01*
X949Y5188D02*
X989Y5268D01*
X949Y5348D01*
X1029Y5308D01*
X1109Y5348D01*
X1069Y5268D01*
X1109Y5188D01*
X1029Y5228D01*
X949Y5188D01*
X5940Y4795D02*
X5980Y4875D01*
X5940Y4955D01*
X6020Y4915D01*
X6100Y4955D01*
X6060Y4875D01*
X6100Y4795D01*
X6020Y4835D01*
X5940Y4795D01*
X5912Y5089D02*
X5952Y5169D01*
X5912Y5249D01*
X5992Y5209D01*
X6072Y5249D01*
X6032Y5169D01*
X6072Y5089D01*
X5992Y5129D01*
X5912Y5089D01*
X1120Y4607D02*
X1160Y4687D01*
X1120Y4767D01*
X1200Y4727D01*
X1280Y4767D01*
X1240Y4687D01*
X1280Y4607D01*
X1200Y4647D01*
X1120Y4607D01*
X1180Y6937D02*
X1220Y7017D01*
X1180Y7097D01*
X1260Y7057D01*
X1340Y7097D01*
X1300Y7017D01*
X1340Y6937D01*
X1260Y6977D01*
X1180Y6937D01*
X2430Y8290D02*
X2470Y8370D01*
X2430Y8450D01*
X2510Y8410D01*
X2590Y8450D01*
X2550Y8370D01*
X2590Y8290D01*
X2510Y8330D01*
X2430Y8290D01*
X1200Y8560D02*
X1240Y8640D01*
X1200Y8720D01*
X1280Y8680D01*
X1360Y8720D01*
X1320Y8640D01*
X1360Y8560D01*
X1280Y8600D01*
X1200Y8560D01*
X5672Y5692D02*
X5712Y5772D01*
X5672Y5852D01*
X5752Y5812D01*
X5832Y5852D01*
X5792Y5772D01*
X5832Y5692D01*
X5752Y5732D01*
X5672Y5692D01*
X4058Y5408D02*
X4098Y5488D01*
X4058Y5568D01*
X4138Y5528D01*
X4218Y5568D01*
X4178Y5488D01*
X4218Y5408D01*
X4138Y5448D01*
X4058Y5408D01*
X3739Y5467D02*
X3779Y5547D01*
X3739Y5627D01*
X3819Y5587D01*
X3899Y5627D01*
X3859Y5547D01*
X3899Y5467D01*
X3819Y5507D01*
X3739Y5467D01*
D88*
X5850Y760D02*
G03*
X5850Y760I-80J0D01*
G01*
X5259D02*
G03*
X5259Y760I-80J0D01*
G01*
X4590Y770D02*
G03*
X4590Y770I-80J0D01*
G01*
X3999D02*
G03*
X3999Y770I-80J0D01*
G01*
M02*
