G04 Layer_Color=128*
%FSLAX24Y24*%
%MOIN*%
G70*
G01*
G75*
%ADD87C,0.0020*%
D87*
X3475Y1390D02*
X3525D01*
X3500Y1365D02*
Y1415D01*
X2205Y5080D02*
X2255D01*
X2230Y5055D02*
Y5105D01*
X5605Y1450D02*
X5655D01*
X5630Y1425D02*
Y1475D01*
X2192Y7831D02*
X2242D01*
X2217Y7806D02*
Y7856D01*
X5596Y3733D02*
X5646D01*
X5621Y3708D02*
Y3758D01*
X2215Y8380D02*
X2265D01*
X2240Y8355D02*
Y8405D01*
X3224Y6145D02*
X3274D01*
X3249Y6120D02*
Y6170D01*
X4820Y8568D02*
X4870D01*
X4845Y8543D02*
Y8593D01*
X5744Y7707D02*
X5794D01*
X5769Y7682D02*
Y7732D01*
X2060Y3900D02*
X2110D01*
X2085Y3875D02*
Y3925D01*
X5059Y2481D02*
X5109D01*
X5084Y2456D02*
Y2506D01*
X3219Y6445D02*
X3269D01*
X3244Y6420D02*
Y6470D01*
X3230Y7310D02*
X3280D01*
X3255Y7285D02*
Y7335D01*
X3080Y7515D02*
X3130D01*
X3105Y7490D02*
Y7540D01*
X2410Y6254D02*
X2460D01*
X2435Y6229D02*
Y6279D01*
X3943Y5150D02*
X3993D01*
X3968Y5125D02*
Y5175D01*
X4166Y8137D02*
X4216D01*
X4191Y8112D02*
Y8162D01*
X5353Y7532D02*
X5403D01*
X5378Y7507D02*
Y7557D01*
X4730Y5530D02*
X4780D01*
X4755Y5505D02*
Y5555D01*
X5381Y5819D02*
X5431D01*
X5406Y5794D02*
Y5844D01*
X3896Y3937D02*
X3946D01*
X3921Y3912D02*
Y3962D01*
X3404Y3937D02*
X3454D01*
X3429Y3912D02*
Y3962D01*
X4392Y3937D02*
X4442D01*
X4417Y3912D02*
Y3962D01*
X3404Y2953D02*
X3454D01*
X3429Y2928D02*
Y2978D01*
X3896Y2949D02*
X3946D01*
X3921Y2924D02*
Y2974D01*
X4392Y2949D02*
X4442D01*
X4417Y2924D02*
Y2974D01*
X3404Y3445D02*
X3454D01*
X3429Y3420D02*
Y3470D01*
X3896Y3445D02*
X3946D01*
X3921Y3420D02*
Y3470D01*
X4392Y3445D02*
X4442D01*
X4417Y3420D02*
Y3470D01*
M02*
