G04 Layer_Color=65535*
%FSLAX24Y24*%
%MOIN*%
G70*
G01*
G75*
%ADD25C,0.0051*%
%ADD27C,0.0079*%
%ADD28C,0.0098*%
%ADD30C,0.0100*%
%ADD32C,0.0050*%
%ADD52C,0.0039*%
%ADD53C,0.0030*%
%ADD54C,0.0030*%
D25*
X4525Y1799D02*
G03*
X4525Y1799I-1J0D01*
G01*
X4008Y1878D02*
X4276D01*
X4008D02*
Y2626D01*
X4276D01*
Y1878D02*
Y2626D01*
D27*
X1591Y2559D02*
Y3189D01*
X2252Y2567D02*
Y3173D01*
X5927Y2481D02*
X6036D01*
X4815D02*
X4923D01*
X5927Y1261D02*
X6036D01*
X4815D02*
X4923D01*
X6036Y2324D02*
Y2481D01*
Y1261D02*
Y1418D01*
X4815Y2324D02*
Y2481D01*
Y1261D02*
Y1418D01*
X4087Y2764D02*
Y3984D01*
X4205Y2764D02*
Y3984D01*
X4087D02*
X4205D01*
X4087Y2764D02*
X4205D01*
X2323Y1598D02*
X2913D01*
X2339Y2268D02*
X2929D01*
D28*
X1770Y2276D02*
G03*
X1770Y2276I-49J0D01*
G01*
X3211Y1728D02*
G03*
X3211Y1728I-49J0D01*
G01*
D30*
X6052Y8980D02*
G03*
X6052Y8980I-42J0D01*
G01*
X1245Y700D02*
G03*
X1245Y700I-45J0D01*
G01*
X4559Y1810D02*
G03*
X4559Y1810I-39J0D01*
G01*
X4704Y2754D02*
G03*
X4704Y2754I-56J0D01*
G01*
X5952Y2639D02*
G03*
X5952Y2639I-35J0D01*
G01*
X1075Y5073D02*
G03*
X1075Y5073I-59J0D01*
G01*
D32*
X4677Y2674D02*
G03*
X4677Y2674I-31J0D01*
G01*
X1644Y8767D02*
Y8642D01*
X1669Y8617D01*
X1719D01*
X1744Y8642D01*
Y8767D01*
X1794Y8617D02*
X1843D01*
X1819D01*
Y8767D01*
X1794Y8742D01*
X3271Y2477D02*
Y2352D01*
X3296Y2327D01*
X3346D01*
X3371Y2352D01*
Y2477D01*
X3496Y2327D02*
Y2477D01*
X3421Y2402D01*
X3521D01*
X3680Y4247D02*
Y4122D01*
X3705Y4097D01*
X3755D01*
X3780Y4122D01*
Y4247D01*
X3930D02*
X3830D01*
Y4172D01*
X3880Y4197D01*
X3905D01*
X3930Y4172D01*
Y4122D01*
X3905Y4097D01*
X3855D01*
X3830Y4122D01*
X3086Y2108D02*
Y1983D01*
X3111Y1958D01*
X3161D01*
X3186Y1983D01*
Y2108D01*
X3236Y2083D02*
X3261Y2108D01*
X3311D01*
X3336Y2083D01*
Y2058D01*
X3311Y2033D01*
X3336Y2008D01*
Y1983D01*
X3311Y1958D01*
X3261D01*
X3236Y1983D01*
Y2008D01*
X3261Y2033D01*
X3236Y2058D01*
Y2083D01*
X3261Y2033D02*
X3311D01*
D52*
X1055Y5074D02*
G03*
X1055Y5074I-39J0D01*
G01*
X6055Y2639D02*
G03*
X6055Y2639I-20J0D01*
G01*
X1184Y4670D02*
Y8470D01*
Y4670D02*
X5984D01*
Y8470D01*
X1184D02*
X5984D01*
D53*
X1915Y3648D02*
Y3768D01*
X6106Y429D02*
X6108Y427D01*
X6106Y429D02*
Y1025D01*
X6104Y1027D02*
X6106Y1025D01*
X4860Y1027D02*
X6104D01*
X4849Y1016D02*
X4860Y1027D01*
X4849Y430D02*
Y1016D01*
X6015Y458D02*
Y607D01*
X5955Y532D02*
X6066D01*
X4902Y512D02*
X5008D01*
X4674Y518D02*
X4780D01*
X3544Y552D02*
X3655D01*
X3604Y478D02*
Y627D01*
X5298Y4324D02*
X5418D01*
X5303Y4544D02*
X5423D01*
X4642Y4297D02*
X4762D01*
X4640Y4515D02*
X4760D01*
X5143Y2897D02*
X5263D01*
X5138Y3128D02*
X5258D01*
X5987Y3070D02*
Y3190D01*
X5769Y3067D02*
Y3187D01*
X5995Y3718D02*
Y3838D01*
X5772Y3718D02*
Y3838D01*
X4690Y1356D02*
Y1476D01*
X4458Y1352D02*
Y1472D01*
X4034Y1447D02*
Y1567D01*
X3811Y1444D02*
Y1564D01*
X3748Y1442D02*
Y1562D01*
X3522Y1447D02*
Y1567D01*
X3195Y2787D02*
Y2907D01*
X2977Y2789D02*
Y2909D01*
X2896Y2789D02*
Y2909D01*
X2681Y2789D02*
Y2909D01*
X2895Y3437D02*
X3015D01*
X2895Y3211D02*
X3015D01*
X3204Y3731D02*
Y3851D01*
X2982Y3724D02*
Y3844D01*
X2879Y3734D02*
Y3854D01*
X2664Y3729D02*
Y3849D01*
X2890Y1299D02*
X3010D01*
X2898Y1513D02*
X3018D01*
X2178Y1587D02*
Y1707D01*
X1956Y1589D02*
Y1709D01*
X1782Y1543D02*
Y1663D01*
X1567Y1543D02*
Y1663D01*
X1496Y1543D02*
Y1663D01*
X1279Y1546D02*
Y1666D01*
X1506Y2450D02*
Y2570D01*
X1276Y2455D02*
Y2575D01*
X2148Y3656D02*
Y3776D01*
X1634Y3664D02*
Y3784D01*
X1414Y3664D02*
Y3784D01*
X1498Y4307D02*
X1618D01*
X1499Y4534D02*
X1619D01*
X2477Y3163D02*
X2460Y3180D01*
X2427D01*
X2410Y3163D01*
Y3097D01*
X2427Y3080D01*
X2460D01*
X2477Y3097D01*
X2560Y3080D02*
Y3180D01*
X2510Y3130D01*
X2577D01*
X2610Y3080D02*
X2643D01*
X2627D01*
Y3180D01*
X2610Y3163D01*
X5951Y1186D02*
X5917D01*
X5934D01*
Y1103D01*
X5917Y1086D01*
X5901D01*
X5884Y1103D01*
X6051Y1086D02*
X5984D01*
X6051Y1153D01*
Y1169D01*
X6034Y1186D01*
X6001D01*
X5984Y1169D01*
X5788Y4452D02*
X5805Y4469D01*
Y4502D01*
X5788Y4519D01*
X5722D01*
X5705Y4502D01*
Y4469D01*
X5722Y4452D01*
X5805Y4352D02*
Y4419D01*
X5755D01*
X5772Y4386D01*
Y4369D01*
X5755Y4352D01*
X5722D01*
X5705Y4369D01*
Y4402D01*
X5722Y4419D01*
X4685Y4220D02*
X4668Y4237D01*
X4635D01*
X4618Y4220D01*
Y4154D01*
X4635Y4137D01*
X4668D01*
X4685Y4154D01*
X4785Y4237D02*
X4751Y4220D01*
X4718Y4187D01*
Y4154D01*
X4735Y4137D01*
X4768D01*
X4785Y4154D01*
Y4170D01*
X4768Y4187D01*
X4718D01*
X1415Y3119D02*
X1498D01*
X1515Y3136D01*
Y3169D01*
X1498Y3186D01*
X1415D01*
Y3219D02*
Y3286D01*
X1432D01*
X1498Y3219D01*
X1515D01*
X4309Y1462D02*
X4292Y1445D01*
Y1412D01*
X4309Y1395D01*
X4375D01*
X4392Y1412D01*
Y1445D01*
X4375Y1462D01*
X4309Y1495D02*
X4292Y1512D01*
Y1545D01*
X4309Y1562D01*
X4325D01*
X4342Y1545D01*
Y1528D01*
Y1545D01*
X4359Y1562D01*
X4375D01*
X4392Y1545D01*
Y1512D01*
X4375Y1495D01*
X4309Y1595D02*
X4292Y1612D01*
Y1645D01*
X4309Y1662D01*
X4325D01*
X4342Y1645D01*
X4359Y1662D01*
X4375D01*
X4392Y1645D01*
Y1612D01*
X4375Y1595D01*
X4359D01*
X4342Y1612D01*
X4325Y1595D01*
X4309D01*
X4342Y1612D02*
Y1645D01*
X3879Y1154D02*
X3862Y1171D01*
X3829D01*
X3812Y1154D01*
Y1088D01*
X3829Y1071D01*
X3862D01*
X3879Y1088D01*
X3912Y1154D02*
X3929Y1171D01*
X3962D01*
X3979Y1154D01*
Y1138D01*
X3962Y1121D01*
X3945D01*
X3962D01*
X3979Y1104D01*
Y1088D01*
X3962Y1071D01*
X3929D01*
X3912Y1088D01*
X4012D02*
X4029Y1071D01*
X4062D01*
X4079Y1088D01*
Y1154D01*
X4062Y1171D01*
X4029D01*
X4012Y1154D01*
Y1138D01*
X4029Y1121D01*
X4079D01*
X3344Y2831D02*
X3361Y2848D01*
Y2881D01*
X3344Y2898D01*
X3278D01*
X3261Y2881D01*
Y2848D01*
X3278Y2831D01*
X3261Y2748D02*
X3361D01*
X3311Y2798D01*
Y2731D01*
X3344Y2698D02*
X3361Y2681D01*
Y2648D01*
X3344Y2631D01*
X3278D01*
X3261Y2648D01*
Y2681D01*
X3278Y2698D01*
X3344D01*
X3062Y4206D02*
X3045Y4223D01*
X3012D01*
X2995Y4206D01*
Y4140D01*
X3012Y4123D01*
X3045D01*
X3062Y4140D01*
X3145Y4123D02*
Y4223D01*
X3095Y4173D01*
X3162D01*
X3262Y4123D02*
X3195D01*
X3262Y4190D01*
Y4206D01*
X3245Y4223D01*
X3212D01*
X3195Y4206D01*
X1141Y2433D02*
X1124Y2416D01*
Y2383D01*
X1141Y2366D01*
X1207D01*
X1224Y2383D01*
Y2416D01*
X1207Y2433D01*
X1224Y2516D02*
X1124D01*
X1174Y2466D01*
Y2533D01*
X1141Y2566D02*
X1124Y2583D01*
Y2616D01*
X1141Y2633D01*
X1157D01*
X1174Y2616D01*
Y2599D01*
Y2616D01*
X1191Y2633D01*
X1207D01*
X1224Y2616D01*
Y2583D01*
X1207Y2566D01*
X1331Y3812D02*
X1348Y3829D01*
Y3862D01*
X1331Y3879D01*
X1265D01*
X1248Y3862D01*
Y3829D01*
X1265Y3812D01*
X1248Y3729D02*
X1348D01*
X1298Y3779D01*
Y3712D01*
X1248Y3629D02*
X1348D01*
X1298Y3679D01*
Y3612D01*
X2005Y4124D02*
X1988Y4141D01*
X1955D01*
X1938Y4124D01*
Y4057D01*
X1955Y4041D01*
X1988D01*
X2005Y4057D01*
X2088Y4041D02*
Y4141D01*
X2038Y4091D01*
X2105D01*
X2205Y4141D02*
X2138D01*
Y4091D01*
X2172Y4107D01*
X2188D01*
X2205Y4091D01*
Y4057D01*
X2188Y4041D01*
X2155D01*
X2138Y4057D01*
X1624Y2003D02*
X1607Y2020D01*
X1574D01*
X1557Y2003D01*
Y1937D01*
X1574Y1920D01*
X1607D01*
X1624Y1937D01*
X1707Y1920D02*
Y2020D01*
X1657Y1970D01*
X1724D01*
X1824Y2020D02*
X1790Y2003D01*
X1757Y1970D01*
Y1937D01*
X1774Y1920D01*
X1807D01*
X1824Y1937D01*
Y1953D01*
X1807Y1970D01*
X1757D01*
X2009Y1301D02*
X1992Y1318D01*
X1959D01*
X1942Y1301D01*
Y1235D01*
X1959Y1218D01*
X1992D01*
X2009Y1235D01*
X2092Y1218D02*
Y1318D01*
X2042Y1268D01*
X2109D01*
X2142Y1318D02*
X2209D01*
Y1301D01*
X2142Y1235D01*
Y1218D01*
X2413Y1421D02*
X2396Y1438D01*
X2363D01*
X2346Y1421D01*
Y1355D01*
X2363Y1338D01*
X2396D01*
X2413Y1355D01*
X2496Y1338D02*
Y1438D01*
X2446Y1388D01*
X2513D01*
X2546Y1421D02*
X2563Y1438D01*
X2596D01*
X2613Y1421D01*
Y1405D01*
X2596Y1388D01*
X2613Y1371D01*
Y1355D01*
X2596Y1338D01*
X2563D01*
X2546Y1355D01*
Y1371D01*
X2563Y1388D01*
X2546Y1405D01*
Y1421D01*
X2563Y1388D02*
X2596D01*
X2436Y3275D02*
Y3375D01*
X2486D01*
X2503Y3358D01*
Y3325D01*
X2486Y3308D01*
X2436D01*
X2469D02*
X2503Y3275D01*
X2536Y3358D02*
X2553Y3375D01*
X2586D01*
X2603Y3358D01*
Y3342D01*
X2586Y3325D01*
X2603Y3308D01*
Y3292D01*
X2586Y3275D01*
X2553D01*
X2536Y3292D01*
Y3308D01*
X2553Y3325D01*
X2536Y3342D01*
Y3358D01*
X2553Y3325D02*
X2586D01*
X3555Y1071D02*
Y1171D01*
X3605D01*
X3622Y1154D01*
Y1121D01*
X3605Y1104D01*
X3555D01*
X3588D02*
X3622Y1071D01*
X3655Y1088D02*
X3672Y1071D01*
X3705D01*
X3722Y1088D01*
Y1154D01*
X3705Y1171D01*
X3672D01*
X3655Y1154D01*
Y1138D01*
X3672Y1121D01*
X3722D01*
X5184Y3195D02*
Y3295D01*
X5234D01*
X5250Y3279D01*
Y3245D01*
X5234Y3229D01*
X5184D01*
X5217D02*
X5250Y3195D01*
X5284D02*
X5317D01*
X5300D01*
Y3295D01*
X5284Y3279D01*
X5367D02*
X5383Y3295D01*
X5417D01*
X5433Y3279D01*
Y3212D01*
X5417Y3195D01*
X5383D01*
X5367Y3212D01*
Y3279D01*
X5700Y3633D02*
X5600D01*
Y3683D01*
X5617Y3700D01*
X5650D01*
X5667Y3683D01*
Y3633D01*
Y3666D02*
X5700Y3700D01*
Y3733D02*
Y3766D01*
Y3750D01*
X5600D01*
X5617Y3733D01*
X5700Y3816D02*
Y3850D01*
Y3833D01*
X5600D01*
X5617Y3816D01*
X6025Y3271D02*
X6125D01*
Y3221D01*
X6108Y3204D01*
X6075D01*
X6058Y3221D01*
Y3271D01*
Y3238D02*
X6025Y3204D01*
Y3171D02*
Y3138D01*
Y3154D01*
X6125D01*
X6108Y3171D01*
X6025Y3021D02*
Y3088D01*
X6092Y3021D01*
X6108D01*
X6125Y3038D01*
Y3071D01*
X6108Y3088D01*
X2616Y4123D02*
Y4223D01*
X2666D01*
X2683Y4206D01*
Y4173D01*
X2666Y4156D01*
X2616D01*
X2649D02*
X2683Y4123D01*
X2716D02*
X2749D01*
X2733D01*
Y4223D01*
X2716Y4206D01*
X2799D02*
X2816Y4223D01*
X2849D01*
X2866Y4206D01*
Y4190D01*
X2849Y4173D01*
X2833D01*
X2849D01*
X2866Y4156D01*
Y4140D01*
X2849Y4123D01*
X2816D01*
X2799Y4140D01*
X1206Y4271D02*
X1106D01*
Y4321D01*
X1123Y4338D01*
X1156D01*
X1173Y4321D01*
Y4271D01*
Y4304D02*
X1206Y4338D01*
Y4371D02*
Y4404D01*
Y4388D01*
X1106D01*
X1123Y4371D01*
X1206Y4504D02*
X1106D01*
X1156Y4454D01*
Y4521D01*
X1227Y1482D02*
X1127D01*
Y1532D01*
X1144Y1549D01*
X1177D01*
X1194Y1532D01*
Y1482D01*
Y1515D02*
X1227Y1549D01*
Y1582D02*
Y1615D01*
Y1599D01*
X1127D01*
X1144Y1582D01*
X1127Y1732D02*
Y1665D01*
X1177D01*
X1160Y1699D01*
Y1715D01*
X1177Y1732D01*
X1210D01*
X1227Y1715D01*
Y1682D01*
X1210Y1665D01*
D54*
X5290Y2750D02*
Y2667D01*
X5307Y2650D01*
X5340D01*
X5356Y2667D01*
Y2750D01*
X5456D02*
X5423Y2733D01*
X5390Y2700D01*
Y2667D01*
X5406Y2650D01*
X5440D01*
X5456Y2667D01*
Y2683D01*
X5440Y2700D01*
X5390D01*
X2180Y8919D02*
X2117D01*
X2180Y8982D01*
Y8997D01*
X2165Y9013D01*
X2133D01*
X2117Y8997D01*
X2212Y8919D02*
Y8934D01*
X2228D01*
Y8919D01*
X2212D01*
X2291Y8934D02*
X2306Y8919D01*
X2338D01*
X2354Y8934D01*
Y8997D01*
X2338Y9013D01*
X2306D01*
X2291Y8997D01*
Y8982D01*
X2306Y8966D01*
X2354D01*
X2385Y9013D02*
Y8950D01*
X2417Y8919D01*
X2448Y8950D01*
Y9013D01*
X5340Y544D02*
Y450D01*
X5403D01*
X5497Y544D02*
X5434D01*
Y450D01*
X5497D01*
X5434Y497D02*
X5466D01*
X5529Y544D02*
Y450D01*
X5576D01*
X5592Y466D01*
Y529D01*
X5576Y544D01*
X5529D01*
X4043Y524D02*
Y430D01*
X4090D01*
X4106Y446D01*
Y509D01*
X4090Y524D01*
X4043D01*
X4137Y430D02*
Y493D01*
X4169Y524D01*
X4200Y493D01*
Y430D01*
Y477D01*
X4137D01*
X4232Y524D02*
X4295D01*
X4263D01*
Y430D01*
X4326D02*
Y493D01*
X4358Y524D01*
X4389Y493D01*
Y430D01*
Y477D01*
X4326D01*
X1141Y577D02*
Y483D01*
Y514D01*
X1204Y577D01*
X1157Y530D01*
X1204Y483D01*
X1298Y577D02*
X1235D01*
Y483D01*
X1298D01*
X1235Y530D02*
X1267D01*
X1330Y483D02*
Y577D01*
X1361Y546D01*
X1393Y577D01*
Y483D01*
X1487Y577D02*
X1424D01*
Y483D01*
X1487D01*
X1424Y530D02*
X1456D01*
X1519Y483D02*
Y577D01*
X1566D01*
X1582Y562D01*
Y530D01*
X1566Y514D01*
X1519D01*
X1550D02*
X1582Y483D01*
X1676Y577D02*
X1613D01*
Y483D01*
X1676D01*
X1613Y530D02*
X1645D01*
X1802Y577D02*
Y483D01*
X1865D01*
X1897D02*
Y546D01*
X1928Y577D01*
X1960Y546D01*
Y483D01*
Y530D01*
X1897D01*
X1991Y577D02*
Y483D01*
X2038D01*
X2054Y499D01*
Y514D01*
X2038Y530D01*
X1991D01*
X2038D01*
X2054Y546D01*
Y562D01*
X2038Y577D01*
X1991D01*
X2086Y530D02*
X2149D01*
X2180Y577D02*
X2212D01*
X2196D01*
Y483D01*
X2180D01*
X2212D01*
X2259D02*
Y577D01*
X2290Y546D01*
X2322Y577D01*
Y483D01*
X2353D02*
Y577D01*
X2400D01*
X2416Y562D01*
Y530D01*
X2400Y514D01*
X2353D01*
X2385D02*
X2416Y483D01*
X2448Y562D02*
X2463Y577D01*
X2495D01*
X2511Y562D01*
Y499D01*
X2495Y483D01*
X2463D01*
X2448Y499D01*
Y562D01*
X2542Y530D02*
X2605D01*
X2637Y483D02*
X2668D01*
X2652D01*
Y577D01*
X2637Y562D01*
X2715Y483D02*
X2778Y546D01*
X2810Y483D02*
X2841D01*
X2825D01*
Y577D01*
X2810Y562D01*
X2888D02*
X2904Y577D01*
X2936D01*
X2951Y562D01*
Y546D01*
X2936Y530D01*
X2951Y514D01*
Y499D01*
X2936Y483D01*
X2904D01*
X2888Y499D01*
Y514D01*
X2904Y530D01*
X2888Y546D01*
Y562D01*
X2904Y530D02*
X2936D01*
X4130Y8730D02*
X4161D01*
X4146D01*
Y8824D01*
X4130Y8809D01*
X4209Y8730D02*
Y8746D01*
X4224D01*
Y8730D01*
X4209D01*
X4350D02*
X4287D01*
X4350Y8793D01*
Y8809D01*
X4335Y8824D01*
X4303D01*
X4287Y8809D01*
X4382Y8824D02*
Y8761D01*
X4413Y8730D01*
X4445Y8761D01*
Y8824D01*
X3330Y9136D02*
X3362D01*
X3346D01*
Y9230D01*
X3330Y9215D01*
X3409Y9136D02*
Y9152D01*
X3425D01*
Y9136D01*
X3409D01*
X3488Y9215D02*
X3504Y9230D01*
X3535D01*
X3551Y9215D01*
Y9199D01*
X3535Y9183D01*
X3551Y9168D01*
Y9152D01*
X3535Y9136D01*
X3504D01*
X3488Y9152D01*
Y9168D01*
X3504Y9183D01*
X3488Y9199D01*
Y9215D01*
X3504Y9183D02*
X3535D01*
X3582Y9230D02*
Y9168D01*
X3614Y9136D01*
X3645Y9168D01*
Y9230D01*
X3400Y9009D02*
X3385Y9025D01*
X3353D01*
X3337Y9009D01*
Y8993D01*
X3353Y8977D01*
X3385D01*
X3400Y8962D01*
Y8946D01*
X3385Y8930D01*
X3353D01*
X3337Y8946D01*
X3432Y9025D02*
Y8930D01*
X3479D01*
X3495Y8946D01*
Y9009D01*
X3479Y9025D01*
X3432D01*
X3526Y8930D02*
Y8993D01*
X3558Y9025D01*
X3589Y8993D01*
Y8930D01*
Y8977D01*
X3526D01*
X3011Y9003D02*
X2995Y9019D01*
X2964D01*
X2948Y9003D01*
Y8987D01*
X2964Y8972D01*
X2995D01*
X3011Y8956D01*
Y8940D01*
X2995Y8924D01*
X2964D01*
X2948Y8940D01*
X3106Y9003D02*
X3090Y9019D01*
X3058D01*
X3043Y9003D01*
Y8940D01*
X3058Y8924D01*
X3090D01*
X3106Y8940D01*
X3137Y9019D02*
Y8924D01*
X3200D01*
X2625Y9003D02*
X2609Y9019D01*
X2577D01*
X2562Y9003D01*
Y8940D01*
X2577Y8924D01*
X2609D01*
X2625Y8940D01*
Y8972D01*
X2593D01*
X2656Y8924D02*
Y9019D01*
X2719Y8924D01*
Y9019D01*
X2751D02*
Y8924D01*
X2798D01*
X2813Y8940D01*
Y9003D01*
X2798Y9019D01*
X2751D01*
M02*
