G04 Layer_Physical_Order=4*
G04 Layer_Color=16711680*
%FSLAX24Y24*%
%MOIN*%
G70*
G01*
G75*
%ADD10R,0.0236X0.0217*%
%ADD14R,0.0217X0.0236*%
%ADD24C,0.0118*%
%ADD25C,0.0051*%
%ADD26C,0.0150*%
%ADD27C,0.0079*%
%ADD29C,0.0080*%
%ADD30C,0.0100*%
%ADD32C,0.0050*%
%ADD33C,0.0052*%
%ADD34C,0.0060*%
%ADD36C,0.0300*%
%ADD37C,0.0530*%
%ADD38C,0.0330*%
%ADD39C,0.0170*%
%ADD40C,0.0200*%
G04:AMPARAMS|DCode=41|XSize=33.5mil|YSize=25.6mil|CornerRadius=6.4mil|HoleSize=0mil|Usage=FLASHONLY|Rotation=90.000|XOffset=0mil|YOffset=0mil|HoleType=Round|Shape=RoundedRectangle|*
%AMROUNDEDRECTD41*
21,1,0.0335,0.0128,0,0,90.0*
21,1,0.0207,0.0256,0,0,90.0*
1,1,0.0128,0.0064,0.0103*
1,1,0.0128,0.0064,-0.0103*
1,1,0.0128,-0.0064,-0.0103*
1,1,0.0128,-0.0064,0.0103*
%
%ADD41ROUNDEDRECTD41*%
%ADD42R,0.0256X0.0335*%
%ADD43R,0.0300X0.0300*%
%ADD44R,0.0300X0.0300*%
%ADD45R,0.1071X0.0508*%
%ADD46R,0.0445X0.0579*%
%ADD47R,0.0197X0.0197*%
%ADD48R,0.1220X0.1220*%
%ADD49R,0.0098X0.0236*%
%ADD50R,0.0236X0.0098*%
%ADD51C,0.0120*%
D10*
X5768Y7098D02*
D03*
Y7453D02*
D03*
X1382Y2575D02*
D03*
Y2929D02*
D03*
X2759Y7652D02*
D03*
Y8006D02*
D03*
X2457Y7645D02*
D03*
Y7999D02*
D03*
X5470Y4623D02*
D03*
Y4977D02*
D03*
X5350Y2493D02*
D03*
Y2847D02*
D03*
X5645Y3993D02*
D03*
Y4347D02*
D03*
X3094Y5224D02*
D03*
Y4870D02*
D03*
X2783Y5217D02*
D03*
Y4862D02*
D03*
X3695Y5262D02*
D03*
Y4908D02*
D03*
X3400Y5257D02*
D03*
Y4903D02*
D03*
X5620Y1772D02*
D03*
Y2127D02*
D03*
X5330Y1773D02*
D03*
Y2127D02*
D03*
X5910Y1453D02*
D03*
Y1807D02*
D03*
X4743Y1340D02*
D03*
Y1695D02*
D03*
X5042Y1768D02*
D03*
Y2123D02*
D03*
X3508Y1650D02*
D03*
Y2004D02*
D03*
X3213Y1654D02*
D03*
Y2008D02*
D03*
X2921Y1780D02*
D03*
Y2134D02*
D03*
X3803Y1776D02*
D03*
Y2130D02*
D03*
X4091Y1772D02*
D03*
Y2126D02*
D03*
X5640Y2493D02*
D03*
Y2847D02*
D03*
X5915Y3462D02*
D03*
Y3108D02*
D03*
D14*
X1583Y6618D02*
D03*
X1937D02*
D03*
X1583Y6913D02*
D03*
X1937D02*
D03*
X1583Y5453D02*
D03*
X1937D02*
D03*
X1580Y8680D02*
D03*
X1934D02*
D03*
X1857Y4200D02*
D03*
X1503D02*
D03*
X1839Y3858D02*
D03*
X1484D02*
D03*
X2059Y2917D02*
D03*
X1705D02*
D03*
X2067Y2610D02*
D03*
X1713D02*
D03*
X2925Y1488D02*
D03*
X2571D02*
D03*
X1580Y4860D02*
D03*
X1934D02*
D03*
X3498Y6142D02*
D03*
X3852D02*
D03*
X3497Y6429D02*
D03*
X3852D02*
D03*
X3500Y6728D02*
D03*
X3854D02*
D03*
X3500Y7331D02*
D03*
X3854D02*
D03*
X2594Y6579D02*
D03*
X2949D02*
D03*
X2594Y6874D02*
D03*
X2949D02*
D03*
X3500Y7031D02*
D03*
X3854D02*
D03*
X1583Y4550D02*
D03*
X1937D02*
D03*
X1583Y5752D02*
D03*
X1937D02*
D03*
X1583Y6331D02*
D03*
X1937D02*
D03*
X1583Y6043D02*
D03*
X1937D02*
D03*
X1583Y7496D02*
D03*
X1937D02*
D03*
X1583Y7799D02*
D03*
X1937D02*
D03*
X1583Y8087D02*
D03*
X1937D02*
D03*
X1583Y8382D02*
D03*
X1937D02*
D03*
X1583Y7201D02*
D03*
X1937D02*
D03*
X1580Y5150D02*
D03*
X1934D02*
D03*
X4197Y8406D02*
D03*
X4551D02*
D03*
X4200Y8694D02*
D03*
X4554D02*
D03*
X3496Y5825D02*
D03*
X3851D02*
D03*
X4772Y7815D02*
D03*
X5126D02*
D03*
X4776Y7516D02*
D03*
X5130D02*
D03*
X5394Y5276D02*
D03*
X5749D02*
D03*
X4773Y5275D02*
D03*
X5127D02*
D03*
X4403Y1994D02*
D03*
X4757D02*
D03*
X4112Y1313D02*
D03*
X4466D02*
D03*
X5357Y8830D02*
D03*
X5003D02*
D03*
X5158Y3225D02*
D03*
X5512D02*
D03*
D24*
X5756Y6717D02*
Y7098D01*
X5528D02*
X5756D01*
X5527Y7097D02*
X5528Y7098D01*
X5756D02*
X5768D01*
X5071Y6138D02*
X5390Y5819D01*
X5071Y6138D02*
Y6150D01*
X5720Y6681D02*
X5756Y6717D01*
D25*
X5132Y8514D02*
X5363Y8283D01*
X5723Y4977D02*
X5758Y5012D01*
X5126Y7815D02*
Y8504D01*
X5915Y3110D02*
X5930Y3095D01*
X5910Y2820D02*
X5920Y2830D01*
X5910Y2810D02*
Y2820D01*
X4757Y1977D02*
X4903Y2123D01*
X4739Y1688D02*
X4757Y1706D01*
X3423Y4880D02*
X3695D01*
X3224Y4366D02*
Y4402D01*
X4597Y2209D02*
X4784Y2021D01*
X4210Y2441D02*
Y2530D01*
X4465Y1736D02*
X4506Y1695D01*
X2354Y1731D02*
X2642D01*
X2000Y1547D02*
X2169D01*
X1231Y7579D02*
X1451Y7799D01*
X4543Y8685D02*
X4551Y8677D01*
Y8425D02*
X4634Y8343D01*
X4551Y8677D02*
Y8702D01*
X4130Y6707D02*
Y6764D01*
X4110Y6071D02*
X4116Y6065D01*
X4039Y6142D02*
X4110Y6071D01*
X3893Y5804D02*
Y5853D01*
X2717Y8000D02*
Y8163D01*
X2440Y8000D02*
X2530Y8090D01*
X2891Y5789D02*
X2949Y5847D01*
X4201Y8406D02*
Y8673D01*
X4197Y8681D02*
X4211Y8695D01*
X4197Y8128D02*
Y8406D01*
X4735Y5545D02*
X4773Y5507D01*
X3697Y5257D02*
X3700Y5260D01*
X4866Y3161D02*
X4930Y3225D01*
X5323Y1772D02*
X5331D01*
X3400Y5257D02*
X3697D01*
X2815Y5248D02*
X3130D01*
X2945Y1811D02*
X3102Y1654D01*
X1811Y4157D02*
X1839Y4130D01*
X1260Y6680D02*
Y6710D01*
Y6653D02*
Y6680D01*
Y6653D02*
X1583Y6331D01*
X5910Y2457D02*
Y2800D01*
X5920Y2810D01*
X5834Y2724D02*
X5910Y2800D01*
X5834Y2708D02*
Y2724D01*
X5789Y2663D02*
X5834Y2708D01*
X5773Y2663D02*
X5789D01*
X5640Y2530D02*
X5773Y2663D01*
X5640Y2493D02*
Y2530D01*
X5930Y2820D02*
Y3095D01*
X3508Y1412D02*
X3510Y1410D01*
X3508Y1412D02*
Y1650D01*
X3456Y1410D02*
X3490D01*
X3213Y1654D02*
X3456Y1410D01*
X5620Y2127D02*
X5913D01*
X5386Y2071D02*
X5398Y2083D01*
X4210Y2441D02*
X4442Y2209D01*
X3700Y5224D02*
X3902D01*
X5920Y4580D02*
Y4755D01*
X3533Y7991D02*
X3879Y7644D01*
X3440Y8069D02*
Y8750D01*
Y8069D02*
X3535Y7974D01*
X3359Y7605D02*
X3421Y7543D01*
X3071Y7869D02*
X3350Y7590D01*
X3071Y7869D02*
Y8701D01*
X5910Y1820D02*
Y2103D01*
X5913Y2127D02*
X5920Y2120D01*
X3398Y4674D02*
X3421Y4650D01*
Y4402D02*
Y4650D01*
X1029Y5253D02*
X1038Y5262D01*
X5394Y5265D02*
X5425D01*
X5767Y3292D02*
X5950Y3475D01*
X5356Y3031D02*
X5531Y3206D01*
X3618Y4402D02*
Y4649D01*
X5935Y3950D02*
Y4255D01*
X5470Y4510D02*
X5650Y4330D01*
X4020Y4402D02*
Y4680D01*
X1329Y8911D02*
X1563Y8677D01*
X5360Y2845D02*
X5660D01*
X2358Y3891D02*
Y4378D01*
X4413Y4561D02*
X4525Y4673D01*
X5757Y8733D02*
X5785Y8705D01*
X5690Y8830D02*
X5775Y8745D01*
X2468Y4594D02*
X2527Y4536D01*
X4752Y7803D02*
X4776Y7780D01*
X2720Y4598D02*
Y4610D01*
X4894Y4146D02*
Y4591D01*
X2760Y4028D02*
Y4394D01*
X3209Y2004D02*
X3508D01*
X3205Y2008D02*
X3209Y2004D01*
X2917Y2161D02*
X3071Y2008D01*
X1200Y4690D02*
X1340Y4550D01*
X5936Y3821D02*
Y3952D01*
X5534Y3419D02*
X5936Y3821D01*
X4927Y3419D02*
X5534D01*
X4543Y8433D02*
X4551Y8425D01*
Y8461D02*
X4555Y8457D01*
X4543Y8468D02*
X4551Y8461D01*
Y8677D02*
X4555Y8673D01*
X4551Y8461D02*
Y8677D01*
Y8425D02*
Y8461D01*
Y8406D02*
Y8425D01*
Y8702D02*
X4552Y8703D01*
X4197Y8406D02*
Y8681D01*
X5628Y3735D02*
X5645Y3752D01*
Y3993D01*
X1240Y6097D02*
X1565Y5772D01*
X1240Y6097D02*
Y6387D01*
X1583Y6063D02*
Y6331D01*
Y6063D02*
X1585Y6065D01*
X5137Y5265D02*
X5175D01*
X5185Y5276D01*
X5171Y5262D02*
X5175Y5265D01*
X5185Y5276D02*
X5394D01*
X5737Y5012D02*
Y5275D01*
X5470Y4977D02*
X5723D01*
X4280Y4465D02*
Y4649D01*
X4017Y4682D02*
X4020Y4680D01*
X5620Y2106D02*
Y2127D01*
X5314Y1768D02*
X5318Y1772D01*
X5314Y1768D02*
X5314Y1768D01*
X4853Y8566D02*
X4875Y8588D01*
Y8680D01*
X3531Y7991D02*
X3533D01*
X3421Y7543D02*
X4035D01*
X2949Y5847D02*
Y6579D01*
X2628Y4506D02*
X2720Y4598D01*
X2628Y4263D02*
Y4506D01*
X2598Y4233D02*
X2628Y4263D01*
X2598Y3965D02*
Y4233D01*
X2968Y4492D02*
X3035Y4559D01*
X2968Y4437D02*
Y4492D01*
Y4437D02*
X2969Y4437D01*
Y4146D02*
Y4437D01*
X1307Y7661D02*
Y7811D01*
X1451Y7799D02*
X1583D01*
X4866Y3752D02*
X5272D01*
X5299D01*
X5180Y4084D02*
X5442Y3822D01*
X5180Y4084D02*
Y4250D01*
X4397Y4863D02*
X4814D01*
X4323Y5080D02*
X4439Y4964D01*
X4855D01*
X4595Y5065D02*
X4897D01*
X4505Y5155D02*
X4595Y5065D01*
X4894Y4591D02*
X4919Y4617D01*
Y4757D01*
X4814Y4863D02*
X4919Y4757D01*
X5096Y4334D02*
X5180Y4250D01*
X5096Y4334D02*
Y4507D01*
X5121Y4533D01*
Y4850D01*
X5096Y4875D02*
X5121Y4850D01*
X2118Y4291D02*
X2154D01*
X2257Y4188D01*
Y3849D02*
Y4188D01*
X2497Y3923D02*
Y4275D01*
X2527Y4305D02*
Y4536D01*
X2497Y4275D02*
X2527Y4305D01*
X2598Y3965D02*
X2811Y3752D01*
X2257Y3849D02*
X2736Y3370D01*
X2358Y3891D02*
X2891Y3358D01*
X2497Y3923D02*
X2865Y3555D01*
X2811Y3752D02*
X2968D01*
X2760Y4028D02*
X2839Y3949D01*
X2968D01*
X5089Y2482D02*
X5100Y2493D01*
X5350D01*
X4602Y2512D02*
X4610D01*
Y2530D01*
X4597Y2585D02*
X4655Y2643D01*
X5016D01*
X5060Y2687D01*
Y2695D01*
X5212Y2847D01*
X5350D01*
X5201Y3031D02*
X5356D01*
X5156Y2987D02*
X5201Y3031D01*
X4509Y2310D02*
X5185D01*
X4442Y2209D02*
X4597D01*
X4903Y2123D02*
X5042D01*
X4989Y2768D02*
X5156Y2935D01*
X4866Y2768D02*
X4989D01*
X4413Y2406D02*
X4509Y2310D01*
X4506Y1695D02*
X4743D01*
X4757Y1977D02*
Y1994D01*
Y1706D02*
Y1977D01*
X5339Y2130D02*
X5606D01*
X5348Y2149D02*
Y2275D01*
X5314Y2309D02*
X5348Y2275D01*
X5186Y2309D02*
X5314D01*
X5185Y2310D02*
X5186Y2309D01*
X1264Y7315D02*
X1445Y7496D01*
X1264Y7315D02*
X1378Y7201D01*
X3059Y6984D02*
Y7150D01*
X2949Y6874D02*
X3059Y6984D01*
X3879Y7644D02*
X4077D01*
X4035Y7543D02*
X4296Y7283D01*
X4077Y7644D02*
X4397Y7325D01*
X4083Y7031D02*
X4122Y7071D01*
X4138Y7087D01*
X2520Y2920D02*
X3071Y2369D01*
Y2318D02*
Y2369D01*
Y2318D02*
X3109Y2279D01*
X4413Y4402D02*
Y4561D01*
X4161Y5098D02*
Y5480D01*
X4154Y5488D02*
X4161Y5480D01*
Y5098D02*
X4397Y4863D01*
X4323Y5080D02*
Y5559D01*
X4505Y5155D02*
Y5243D01*
X4634Y8343D02*
X4835D01*
X4875Y8680D02*
X5010Y8815D01*
X2968Y4146D02*
X2969Y4146D01*
X3227Y4404D02*
Y4769D01*
X1029Y5121D02*
Y5253D01*
Y5121D02*
X1320Y4830D01*
X4772Y4563D02*
Y4673D01*
X4610Y4402D02*
X4772Y4563D01*
X5020Y4575D02*
Y4799D01*
X4995Y4549D02*
X5020Y4575D01*
X4855Y4964D02*
X5020Y4799D01*
X4897Y5065D02*
X5088Y4875D01*
X5096D01*
X4995Y4291D02*
Y4549D01*
X4866Y2996D02*
Y3007D01*
X4860Y2990D02*
X4866Y2996D01*
X4430Y2960D02*
X4444Y2974D01*
X4217Y4402D02*
X4280Y4465D01*
X4011Y4410D02*
X4020Y4402D01*
X3400Y4903D02*
X3423Y4880D01*
X3109Y2279D02*
X3429D01*
Y2512D01*
X4927Y3419D02*
X4928Y3420D01*
X4866Y3358D02*
X4927Y3419D01*
X4928Y3420D02*
X4935D01*
X5442Y3682D02*
Y3822D01*
X6020Y4875D02*
Y4875D01*
Y4875D02*
X6030Y4865D01*
X5920Y4755D02*
X6030Y4865D01*
X4197Y8128D02*
X4205Y8120D01*
X5003Y8830D02*
Y8867D01*
X5357Y8830D02*
X5690D01*
X5657Y8283D02*
X5750Y8190D01*
X5363Y8283D02*
X5657D01*
X4675Y6740D02*
X4734Y6681D01*
X5071D01*
X4858Y3161D02*
X4866D01*
X4930Y3225D02*
X5158D01*
X5579Y3292D02*
X5767D01*
X5512Y3225D02*
X5579Y3292D01*
X5156Y2935D02*
Y2987D01*
X5640Y2493D02*
X5688D01*
X5358Y2847D02*
X5360Y2845D01*
X5350Y2847D02*
X5358D01*
X5315Y3555D02*
X5442Y3682D01*
X4866Y3555D02*
X5315D01*
X5645Y4347D02*
X5793D01*
X5470Y4510D02*
Y4623D01*
X5793Y4347D02*
X5905Y4235D01*
X5925Y4230D02*
X5928Y4233D01*
X5930D01*
X4564Y6044D02*
X4834Y5774D01*
X4276Y6332D02*
X4564Y6044D01*
X4564D02*
X4564D01*
X4552Y6033D02*
X4564Y6044D01*
X4552Y5608D02*
Y6033D01*
X5860Y5500D02*
X6000Y5360D01*
X5327Y5500D02*
X5860D01*
X5053Y5774D02*
X5327Y5500D01*
X4834Y5774D02*
X5053D01*
X4276Y6332D02*
Y6673D01*
X4385Y6365D02*
Y6640D01*
X6065Y4880D02*
X6180Y4995D01*
Y5323D01*
X5902Y5602D02*
X6180Y5323D01*
X5368Y5602D02*
X5902D01*
X5095Y5875D02*
X5368Y5602D01*
X4875Y5875D02*
X5095D01*
X4385Y6365D02*
X4875Y5875D01*
X4773Y5275D02*
Y5507D01*
X5096Y4875D02*
Y5251D01*
Y4875D02*
X5100D01*
X5096Y5251D02*
X5115Y5270D01*
X4995Y4291D02*
X5060Y4226D01*
X4535Y5590D02*
X4552Y5608D01*
X6000Y5180D02*
Y5360D01*
X4866Y2768D02*
Y2786D01*
X1300Y5402D02*
Y5760D01*
Y5402D02*
X1552Y5150D01*
X1573D01*
X1320Y4830D02*
X1560D01*
X1340Y4550D02*
X1583D01*
X1280Y7010D02*
X1377Y6913D01*
X1280Y6921D02*
Y7010D01*
Y6921D02*
X1583Y6618D01*
X1377Y6913D02*
X1583D01*
X1583Y5733D02*
X1590Y5740D01*
X1583Y5453D02*
Y5733D01*
X2510Y8370D02*
X2717Y8163D01*
X2520Y8350D02*
X2530Y8340D01*
Y8090D02*
Y8340D01*
X2374Y8051D02*
X2425Y8000D01*
X2440D01*
X2417D02*
X2425D01*
X1280Y8630D02*
X1528Y8382D01*
X1583D01*
X1563Y8677D02*
X1579D01*
X4846Y3551D02*
X4858D01*
X5386Y2071D02*
X5386D01*
X3815Y2126D02*
X3815Y2126D01*
X4012Y2181D02*
X4016Y2177D01*
X5071Y6681D02*
Y6701D01*
X4224Y5658D02*
X4323Y5559D01*
X4018Y5658D02*
X4224D01*
X3907Y5547D02*
X4018Y5658D01*
X4138Y5488D02*
X4154D01*
X3819Y5547D02*
X3907D01*
X4543Y8409D02*
X4547D01*
X4551Y8406D01*
X3902Y5224D02*
X3961Y5165D01*
X4504Y7984D02*
X4602D01*
X2891Y3161D02*
X2949D01*
X2846Y3185D02*
X2949D01*
X2736Y3295D02*
X2846Y3185D01*
X2736Y3295D02*
Y3370D01*
X2891Y3358D02*
X2968D01*
X3114Y4882D02*
X3227Y4769D01*
X3224Y4402D02*
X3227Y4404D01*
X2307Y4390D02*
X2319Y4402D01*
X3398Y4870D02*
X3402Y4866D01*
X3096Y4900D02*
X3102Y4906D01*
X3224Y4205D02*
Y4366D01*
X3693Y4161D02*
X3831Y4299D01*
X3268Y4161D02*
X3693D01*
X3224Y4205D02*
X3268Y4161D01*
X3094Y5248D02*
Y5276D01*
X2807Y5240D02*
X2815Y5248D01*
X3224Y4366D02*
X3236Y4378D01*
X2807Y4886D02*
X3083D01*
X1583Y5752D02*
X1587D01*
X1583Y6618D02*
X1587D01*
X1583Y6913D02*
X1587D01*
X1378Y7201D02*
X1583D01*
X1591D01*
X1583Y7496D02*
X1591D01*
X1445D02*
X1583D01*
X1307Y7811D02*
X1583Y8087D01*
X2949Y6579D02*
Y6874D01*
X3852Y6142D02*
X4039D01*
X3893Y5853D02*
X4110Y6071D01*
X3854Y6728D02*
X4098D01*
X3852Y6429D02*
X4130Y6707D01*
X4132Y6762D02*
X4134Y6764D01*
X2713Y8012D02*
Y8031D01*
X3854Y7031D02*
X4083D01*
X3854Y7331D02*
X3878D01*
X4126Y7083D01*
X4776Y7516D02*
Y7780D01*
X4602Y7984D02*
X4772Y7815D01*
X5016Y4021D02*
X5060Y4065D01*
X5013Y4021D02*
X5016D01*
X4957Y3965D02*
X5013Y4021D01*
X3609Y2495D02*
X3626Y2512D01*
X3609Y2113D02*
Y2495D01*
X3508Y2012D02*
X3609Y2113D01*
X5339Y2165D02*
Y2175D01*
X4413Y2406D02*
Y2512D01*
X3071Y2008D02*
X3205D01*
X3213D01*
X3102Y1654D02*
X3213D01*
X2618Y2154D02*
X2638Y2134D01*
X2642D01*
X2921D01*
X2474Y1191D02*
X2602Y1063D01*
X1500Y3858D02*
X1536Y3822D01*
X2091Y3413D02*
X2154Y3476D01*
X4858Y3752D02*
X4866D01*
X4858Y3358D02*
X4866D01*
X2642Y1731D02*
Y1780D01*
X2169Y1547D02*
X2354Y1731D01*
X5060Y4075D02*
Y4226D01*
X2865Y3555D02*
X2968D01*
X4276Y6673D02*
X4296Y6693D01*
X4385Y6640D02*
X4397Y6651D01*
Y7325D01*
X4296Y6693D02*
Y7283D01*
X4543Y8468D02*
Y8685D01*
X2902Y5469D02*
X3094Y5276D01*
X3673Y5224D02*
X3689Y5240D01*
D26*
X2055Y5150D02*
X2235Y4970D01*
X2067Y2551D02*
X2419D01*
X2048Y3858D02*
X2090Y3900D01*
X2059Y2591D02*
Y2917D01*
X1831Y3854D02*
X1835Y3850D01*
X2035Y2567D02*
X2059Y2591D01*
X2230Y5080D02*
X2240Y5070D01*
X2160Y5150D02*
X2230Y5080D01*
X2055Y5150D02*
X2160D01*
X1975Y4873D02*
X2238D01*
Y4734D02*
Y4873D01*
X2235Y4881D02*
Y4970D01*
X1966Y4883D02*
X1975Y4873D01*
X2055Y4550D02*
X2170Y4665D01*
X2055Y4551D02*
X2238Y4734D01*
X1934Y5150D02*
X2055D01*
X1937Y4550D02*
X2055D01*
X2112Y7201D02*
X2267Y7356D01*
X1937Y7201D02*
X2112D01*
X2430Y2540D02*
X2450D01*
X2419Y2551D02*
X2430Y2540D01*
X1839Y3858D02*
X2048D01*
D27*
X5720Y5819D02*
X5756Y5783D01*
X5720Y5819D02*
Y6150D01*
D29*
X5617Y1453D02*
X5910D01*
X2226Y6047D02*
X2283Y6104D01*
X2215Y7799D02*
X2240Y7824D01*
X2210Y8360D02*
X2250D01*
X1933Y8677D02*
Y8848D01*
X2122Y6913D02*
X2275Y7067D01*
X1937Y6047D02*
X2226D01*
X2255Y5453D02*
X2283Y5480D01*
X2251Y5752D02*
X2285Y5785D01*
X5610Y1460D02*
X5617Y1453D01*
X1375Y2575D02*
X1380Y2580D01*
X2221Y7824D02*
Y7827D01*
X1937Y7799D02*
X2215D01*
X1937Y7496D02*
X2221Y7780D01*
X1937Y5453D02*
X2255D01*
X1937Y5752D02*
X2251D01*
X2177Y6331D02*
X2259Y6413D01*
X1937Y6331D02*
X2177D01*
X2159Y6618D02*
X2265Y6724D01*
X1937Y6618D02*
X2159D01*
X1937Y6913D02*
X2122D01*
X1937Y8087D02*
X2210Y8360D01*
X2228Y8382D02*
X2230Y8380D01*
X1937Y8382D02*
X2228D01*
X2485Y8965D02*
X2690Y8760D01*
X2050Y8965D02*
X2485D01*
X1933Y8848D02*
X2050Y8965D01*
D30*
X5375Y7516D02*
X5392Y7533D01*
X5768Y7453D02*
Y7728D01*
X3490Y7025D02*
X3500Y7035D01*
X3230Y6142D02*
X3498D01*
X2417Y7646D02*
X2717D01*
X2594Y6586D02*
X2625Y6555D01*
X1960Y3270D02*
X2180Y3490D01*
X3823Y2130D02*
Y2512D01*
X2962Y7652D02*
X3099Y7515D01*
X2759Y7652D02*
X2962D01*
X3213Y6159D02*
X3230Y6142D01*
X5768Y7728D02*
X5773Y7733D01*
X3244Y6445D02*
X3481D01*
X2431Y6282D02*
X2594Y6445D01*
Y6579D01*
X3481Y6445D02*
X3497Y6429D01*
X4504Y1260D02*
X4510Y1254D01*
X4866Y3007D02*
Y3161D01*
Y3007D02*
X4871Y3002D01*
X4866Y3161D02*
Y3161D01*
Y2995D02*
Y2996D01*
Y2995D02*
X4871Y2990D01*
X4442Y2960D02*
X4447Y2965D01*
X4866D01*
X5130Y7516D02*
X5375D01*
X1960Y3245D02*
Y3270D01*
X1705Y2989D02*
X1960Y3245D01*
X1705Y2917D02*
Y2989D01*
X1855Y3865D02*
X1857Y3867D01*
Y4200D01*
X3490Y5850D02*
X3498Y5858D01*
Y6142D01*
X3500Y6440D02*
Y6728D01*
X3255Y7330D02*
X3256Y7331D01*
X3500D01*
Y7035D02*
Y7331D01*
X2594Y6586D02*
Y6874D01*
X4066Y1747D02*
X4091Y1772D01*
X3823Y2130D02*
X3831Y2122D01*
X4020Y2512D02*
X4021Y2510D01*
Y2144D02*
Y2510D01*
Y2144D02*
X4043Y2122D01*
D32*
X3695Y4908D02*
X3806Y4796D01*
Y4572D02*
Y4796D01*
X3806Y4571D02*
X3806Y4572D01*
X3806Y4404D02*
Y4571D01*
X3695Y4908D02*
X4022D01*
X4030Y4900D01*
D33*
X5331Y1772D02*
X5357Y1746D01*
X5330Y1773D02*
X5331Y1772D01*
X4285Y1517D02*
X4452Y1349D01*
X4285Y1517D02*
Y1876D01*
X4403Y1994D01*
D34*
X4621Y888D02*
X4975Y1242D01*
Y1702D01*
X5042Y1768D01*
D36*
X2453Y2514D02*
D03*
X2462Y2928D02*
D03*
D37*
X5770Y760D02*
D03*
X5179D02*
D03*
X4510Y770D02*
D03*
X3919D02*
D03*
D38*
X2283Y8701D02*
D03*
X3858D02*
D03*
X2677D02*
D03*
X3071D02*
D03*
X3465D02*
D03*
X3832Y9083D02*
D03*
D39*
X1260Y6680D02*
D03*
X5930Y2820D02*
D03*
X3500Y1390D02*
D03*
X2230Y5080D02*
D03*
X5630Y1450D02*
D03*
X2217Y7831D02*
D03*
X5621Y3733D02*
D03*
X2240Y8380D02*
D03*
X3249Y6145D02*
D03*
X5744Y5007D02*
D03*
X4002Y4677D02*
D03*
X4245Y4671D02*
D03*
X3627Y4659D02*
D03*
X3407Y4660D02*
D03*
X1326Y3449D02*
D03*
X4845Y8568D02*
D03*
X5769Y7707D02*
D03*
X5514Y7099D02*
D03*
X3535Y7974D02*
D03*
X3372Y7595D02*
D03*
X2935Y5787D02*
D03*
X2274Y5775D02*
D03*
X2272Y5465D02*
D03*
X2476Y4594D02*
D03*
X2799Y4366D02*
D03*
X1240Y6387D02*
D03*
X2274Y6090D02*
D03*
X1307Y8890D02*
D03*
X1238Y7572D02*
D03*
X5272Y3752D02*
D03*
X4749Y4687D02*
D03*
X2118Y4291D02*
D03*
X2357Y4376D02*
D03*
X2085Y3900D02*
D03*
X5084Y2481D02*
D03*
X4459Y1728D02*
D03*
X5122Y8504D02*
D03*
X1264Y7315D02*
D03*
X2274Y7043D02*
D03*
X1321Y5780D02*
D03*
X2920Y5490D02*
D03*
X2717Y4606D02*
D03*
X3244Y6445D02*
D03*
X4474Y7976D02*
D03*
X2272Y7354D02*
D03*
X2274Y6724D02*
D03*
X2274Y6405D02*
D03*
X3059Y7150D02*
D03*
X3255Y7310D02*
D03*
X3105Y7515D02*
D03*
X4122Y7071D02*
D03*
X4126Y6764D02*
D03*
X2435Y6254D02*
D03*
X4114Y6075D02*
D03*
X4470Y4680D02*
D03*
X3968Y5150D02*
D03*
X4030Y4900D02*
D03*
X4835Y8343D02*
D03*
X4191Y8137D02*
D03*
X3057Y4602D02*
D03*
X1029Y5268D02*
D03*
X5378Y7532D02*
D03*
X6020Y4875D02*
D03*
X4665Y6740D02*
D03*
X4755Y5530D02*
D03*
X5992Y5169D02*
D03*
X1200Y4687D02*
D03*
X1260Y7017D02*
D03*
X2510Y8370D02*
D03*
X1280Y8640D02*
D03*
X5406Y5819D02*
D03*
X5752Y5772D02*
D03*
X4138Y5488D02*
D03*
X3819Y5547D02*
D03*
X3921Y3937D02*
D03*
X3429D02*
D03*
X4417D02*
D03*
X3429Y2953D02*
D03*
X3921Y2949D02*
D03*
X4417D02*
D03*
X3429Y3445D02*
D03*
X3921D02*
D03*
X4417D02*
D03*
X2004Y1559D02*
D03*
D40*
X1484Y4184D02*
X1510Y4210D01*
X5614Y1773D02*
X5620Y1778D01*
X3822Y758D02*
Y858D01*
X1717Y2929D02*
X1717Y2929D01*
X1705Y2587D02*
Y2917D01*
X1701Y2890D02*
Y2929D01*
X4091Y1352D02*
X4130Y1313D01*
X1410Y3450D02*
X1655D01*
X1368Y3407D02*
X1627D01*
X1326Y3449D02*
X1368Y3407D01*
X1347Y3464D02*
X1484Y3601D01*
Y3858D01*
X5330Y1773D02*
X5614D01*
X5042Y1768D02*
X5314D01*
X4466Y1313D02*
X4712D01*
X4466Y884D02*
Y1313D01*
X4712D02*
X4738Y1339D01*
X4466Y884D02*
X4497Y853D01*
X4091Y1352D02*
Y1772D01*
X3715Y965D02*
X3822Y858D01*
X3368Y965D02*
X3715D01*
X3822Y858D02*
Y1756D01*
X3803Y1776D02*
X3822Y1756D01*
X1375Y2575D02*
X1382D01*
X1484Y3858D02*
Y4184D01*
X2571Y1157D02*
Y1488D01*
Y1157D02*
X2618Y1110D01*
X2925Y1465D02*
Y1488D01*
Y1465D02*
X3229Y1161D01*
X3252D01*
X3311Y1102D01*
Y1024D02*
Y1102D01*
X1713Y2079D02*
X1713Y2079D01*
X1933Y965D02*
X2671D01*
X1713Y2220D02*
Y2551D01*
Y2220D02*
X1728Y2205D01*
X1693Y2575D02*
X1705Y2587D01*
X1382Y2929D02*
X1701D01*
D41*
X5071Y6681D02*
D03*
D42*
X5720D02*
D03*
X5071Y6150D02*
D03*
X5720D02*
D03*
D43*
X5770Y8745D02*
D03*
Y8195D02*
D03*
D44*
X1655Y3450D02*
D03*
X2205D02*
D03*
D45*
X1846Y955D02*
D03*
Y2061D02*
D03*
D46*
X2671Y965D02*
D03*
X3368D02*
D03*
D47*
X4505Y5597D02*
D03*
Y5243D02*
D03*
X5930Y4587D02*
D03*
Y4233D02*
D03*
X5910Y2457D02*
D03*
Y2103D02*
D03*
X2642Y2134D02*
D03*
Y1780D02*
D03*
D48*
X3921Y3457D02*
D03*
D49*
X4610Y4402D02*
D03*
X4413D02*
D03*
X4217D02*
D03*
X4020D02*
D03*
X3823D02*
D03*
X3626D02*
D03*
X3429D02*
D03*
X3232D02*
D03*
Y2512D02*
D03*
X3429D02*
D03*
X3626D02*
D03*
X3823D02*
D03*
X4020D02*
D03*
X4217D02*
D03*
X4413D02*
D03*
X4610D02*
D03*
D50*
X2976Y4146D02*
D03*
Y3949D02*
D03*
Y3752D02*
D03*
Y3555D02*
D03*
Y3358D02*
D03*
Y3161D02*
D03*
Y2965D02*
D03*
Y2768D02*
D03*
X4866D02*
D03*
Y2965D02*
D03*
Y3161D02*
D03*
Y3358D02*
D03*
Y3555D02*
D03*
Y3752D02*
D03*
Y3949D02*
D03*
Y4146D02*
D03*
D51*
X1860Y1030D02*
Y1089D01*
X1201Y1748D02*
X1860Y1089D01*
X1201Y1748D02*
Y2361D01*
X1382Y2541D01*
Y2575D01*
M02*
