M48
;Layer_Color=9474304
;FILE_FORMAT=2:4
INCH,LZ
;TYPE=PLATED
T1F00S00C0.0050
;TYPE=NON_PLATED
%
T01
X0035Y00139
X003429Y002953
Y003445
Y003937
X003921
Y003445
Y002949
X004417
Y003445
Y003937
X005621Y003733
X005084Y002481
X00563Y00145
X005406Y005819
X004755Y00553
X003968Y00515
X003249Y006145
X003244Y006445
X003255Y00731
X003105Y007515
X002217Y007831
X00224Y00838
X004191Y008137
X004845Y008568
X005378Y007532
X005769Y007707
X002435Y006254
X00223Y00508
X002085Y0039
M30
