G04 Layer_Physical_Order=1*
G04 Layer_Color=255*
%FSLAX24Y24*%
%MOIN*%
G70*
G01*
G75*
%ADD10R,0.0236X0.0217*%
%ADD11R,0.0610X0.0551*%
G04:AMPARAMS|DCode=12|XSize=61mil|YSize=55.1mil|CornerRadius=5.5mil|HoleSize=0mil|Usage=FLASHONLY|Rotation=0.000|XOffset=0mil|YOffset=0mil|HoleType=Round|Shape=RoundedRectangle|*
%AMROUNDEDRECTD12*
21,1,0.0610,0.0441,0,0,0.0*
21,1,0.0500,0.0551,0,0,0.0*
1,1,0.0110,0.0250,-0.0220*
1,1,0.0110,-0.0250,-0.0220*
1,1,0.0110,-0.0250,0.0220*
1,1,0.0110,0.0250,0.0220*
%
%ADD12ROUNDEDRECTD12*%
%ADD13C,0.0157*%
%ADD14R,0.0217X0.0236*%
%ADD15R,0.0110X0.0197*%
G04:AMPARAMS|DCode=16|XSize=9.8mil|YSize=23.6mil|CornerRadius=2.5mil|HoleSize=0mil|Usage=FLASHONLY|Rotation=180.000|XOffset=0mil|YOffset=0mil|HoleType=Round|Shape=RoundedRectangle|*
%AMROUNDEDRECTD16*
21,1,0.0098,0.0187,0,0,180.0*
21,1,0.0049,0.0236,0,0,180.0*
1,1,0.0049,-0.0025,0.0093*
1,1,0.0049,0.0025,0.0093*
1,1,0.0049,0.0025,-0.0093*
1,1,0.0049,-0.0025,-0.0093*
%
%ADD16ROUNDEDRECTD16*%
%ADD17R,0.0394X0.0177*%
%ADD18R,0.0335X0.0118*%
%ADD19R,0.0098X0.0276*%
%ADD20R,0.0937X0.0650*%
%ADD21R,0.0512X0.0276*%
%ADD22R,0.0295X0.0110*%
%ADD23R,0.0335X0.0110*%
%ADD24C,0.0118*%
%ADD25C,0.0051*%
%ADD26C,0.0150*%
%ADD27C,0.0079*%
%ADD28C,0.0098*%
%ADD29C,0.0080*%
%ADD30C,0.0100*%
%ADD31C,0.0090*%
%ADD32C,0.0050*%
%ADD33C,0.0052*%
%ADD34C,0.0060*%
%ADD35C,0.0059*%
%ADD36C,0.0300*%
%ADD37C,0.0530*%
%ADD38C,0.0330*%
%ADD39C,0.0170*%
D10*
X2787Y2669D02*
D03*
Y3024D02*
D03*
X3921Y1319D02*
D03*
Y1673D02*
D03*
X3091Y3610D02*
D03*
Y3965D02*
D03*
X2776Y3961D02*
D03*
Y3606D02*
D03*
X1390Y2339D02*
D03*
Y2693D02*
D03*
X1524Y3894D02*
D03*
Y3539D02*
D03*
X2025Y3885D02*
D03*
Y3531D02*
D03*
X1677Y1425D02*
D03*
Y1780D02*
D03*
X1390D02*
D03*
Y1425D02*
D03*
X2067Y1469D02*
D03*
Y1823D02*
D03*
X5880Y3598D02*
D03*
Y3952D02*
D03*
X5875Y3302D02*
D03*
Y2948D02*
D03*
X3634Y1673D02*
D03*
Y1319D02*
D03*
X4574Y1585D02*
D03*
Y1231D02*
D03*
X3083Y2665D02*
D03*
Y3020D02*
D03*
D11*
X5470Y8002D02*
D03*
Y5128D02*
D03*
X1592Y8002D02*
D03*
D12*
Y5128D02*
D03*
D13*
X5578Y7510D02*
D03*
Y7195D02*
D03*
Y6880D02*
D03*
X5263Y5620D02*
D03*
Y5935D02*
D03*
Y6250D02*
D03*
Y6565D02*
D03*
Y6880D02*
D03*
Y7195D02*
D03*
Y7510D02*
D03*
X4949Y8140D02*
D03*
Y7825D02*
D03*
Y7510D02*
D03*
Y7195D02*
D03*
Y6880D02*
D03*
Y6565D02*
D03*
Y6250D02*
D03*
Y5935D02*
D03*
Y5620D02*
D03*
Y5305D02*
D03*
Y4990D02*
D03*
X4634D02*
D03*
Y5305D02*
D03*
Y5620D02*
D03*
Y5935D02*
D03*
Y6250D02*
D03*
Y6565D02*
D03*
Y6880D02*
D03*
Y7195D02*
D03*
Y7510D02*
D03*
Y7825D02*
D03*
Y8140D02*
D03*
X4004D02*
D03*
X3689D02*
D03*
X3374D02*
D03*
X3059D02*
D03*
X4004Y7825D02*
D03*
X3689D02*
D03*
X3374D02*
D03*
X3059D02*
D03*
X5578Y6565D02*
D03*
Y6250D02*
D03*
Y5935D02*
D03*
Y5620D02*
D03*
X4319Y8140D02*
D03*
Y7825D02*
D03*
Y7510D02*
D03*
Y7195D02*
D03*
Y6880D02*
D03*
Y6565D02*
D03*
Y6250D02*
D03*
Y5935D02*
D03*
Y5620D02*
D03*
Y4990D02*
D03*
Y5305D02*
D03*
X4004D02*
D03*
X3689D02*
D03*
X4004Y4990D02*
D03*
X3689D02*
D03*
X3374D02*
D03*
Y5305D02*
D03*
X3059D02*
D03*
Y4990D02*
D03*
X2744D02*
D03*
Y5305D02*
D03*
Y5620D02*
D03*
Y5935D02*
D03*
Y6250D02*
D03*
Y6565D02*
D03*
Y6880D02*
D03*
Y7195D02*
D03*
Y7510D02*
D03*
Y7825D02*
D03*
Y8140D02*
D03*
X2429Y4990D02*
D03*
Y5305D02*
D03*
Y5620D02*
D03*
Y5935D02*
D03*
Y6250D02*
D03*
Y6565D02*
D03*
Y6880D02*
D03*
Y7195D02*
D03*
Y7510D02*
D03*
Y7825D02*
D03*
Y8140D02*
D03*
X2114D02*
D03*
Y7825D02*
D03*
Y7510D02*
D03*
Y7195D02*
D03*
Y6880D02*
D03*
Y6565D02*
D03*
Y6250D02*
D03*
Y5935D02*
D03*
Y5620D02*
D03*
Y4990D02*
D03*
Y5305D02*
D03*
X1799Y5620D02*
D03*
Y5935D02*
D03*
Y6250D02*
D03*
Y6565D02*
D03*
Y6880D02*
D03*
Y7195D02*
D03*
Y7510D02*
D03*
X1484Y5620D02*
D03*
Y5935D02*
D03*
Y6250D02*
D03*
Y6565D02*
D03*
Y6880D02*
D03*
Y7195D02*
D03*
Y7510D02*
D03*
D14*
X1728Y4421D02*
D03*
X1374D02*
D03*
X5183Y4430D02*
D03*
X5537D02*
D03*
X4877Y4410D02*
D03*
X4523D02*
D03*
X2780Y1406D02*
D03*
X3134D02*
D03*
X5036Y3014D02*
D03*
X5391D02*
D03*
X3126Y3319D02*
D03*
X2772D02*
D03*
D15*
X2118Y3181D02*
D03*
X1921D02*
D03*
X1724D02*
D03*
X2118Y2551D02*
D03*
X1921D02*
D03*
D16*
X1724D02*
D03*
D17*
X1921Y2866D02*
D03*
D18*
X4516Y1953D02*
D03*
Y2150D02*
D03*
Y2346D02*
D03*
Y2543D02*
D03*
X3768Y1953D02*
D03*
Y2150D02*
D03*
Y2346D02*
D03*
Y2543D02*
D03*
D19*
X5721Y2422D02*
D03*
X5524D02*
D03*
X5327D02*
D03*
X5130D02*
D03*
X5721Y1320D02*
D03*
X5524D02*
D03*
X5327D02*
D03*
X5130D02*
D03*
D20*
X5425Y1871D02*
D03*
D21*
X3673Y3000D02*
D03*
Y3374D02*
D03*
Y3748D02*
D03*
X4618D02*
D03*
Y3374D02*
D03*
Y3000D02*
D03*
D22*
X2421Y2130D02*
D03*
Y1933D02*
D03*
Y1736D02*
D03*
X2835Y2130D02*
D03*
Y1933D02*
D03*
D23*
Y1736D02*
D03*
D24*
X5043Y8591D02*
X5128Y8506D01*
X3370Y8135D02*
X3563Y8328D01*
X4610Y3374D02*
X4618Y3382D01*
X1210Y8385D02*
Y8421D01*
Y8385D02*
X1592Y8002D01*
X1950Y6086D02*
Y6088D01*
X5719Y2769D02*
X5920Y2970D01*
X5719Y2069D02*
Y2432D01*
X5522D02*
X5719D01*
X1799Y5935D02*
X1950Y6086D01*
X1799Y5933D02*
Y5935D01*
X5719Y2432D02*
Y2769D01*
X5003Y3374D02*
X5076Y3300D01*
X4618Y3374D02*
X5003D01*
X3563Y8328D02*
X4161D01*
X3065Y8145D02*
X3070Y8140D01*
X3374D01*
X4205Y8345D02*
X4451Y8591D01*
X5665Y2015D02*
X5719Y2069D01*
X5423Y1881D02*
X5483Y1941D01*
X4451Y8591D02*
X5043D01*
X4618Y3382D02*
Y3748D01*
D25*
X5183Y4430D02*
Y4702D01*
X4890Y4390D02*
X4949Y4449D01*
X4877Y4390D02*
X4890D01*
X5110D02*
X5170Y4450D01*
X4820Y2640D02*
X4855Y2675D01*
X4607Y1533D02*
X4820Y1746D01*
X1228Y7593D02*
X1401D01*
X1223Y7587D02*
X1228Y7593D01*
X1262Y7018D02*
X1400Y6880D01*
X4819Y8269D02*
Y8358D01*
X4126Y7067D02*
X4254Y7195D01*
X4315Y6240D02*
X4479Y6404D01*
X2915Y5782D02*
Y5793D01*
X4949Y7510D02*
X5115Y7343D01*
X4803Y7970D02*
Y7983D01*
X4783Y7990D02*
X4803Y7970D01*
X4634Y7510D02*
X4789Y7666D01*
X4519Y8254D02*
Y8353D01*
X4798Y7345D02*
Y7370D01*
X4163Y7354D02*
X4319Y7510D01*
X4628Y6244D02*
X4784Y6400D01*
X4321Y5626D02*
X4476Y5470D01*
X4789Y5146D02*
X4949Y5305D01*
X2744Y7825D02*
X2899Y7669D01*
X2870Y6880D02*
X2980Y6770D01*
X2429Y7825D02*
X2584Y7669D01*
X2976Y6832D02*
X3020Y6788D01*
X2744Y5620D02*
X2899Y5465D01*
X2574Y5776D02*
Y5790D01*
X2787Y2409D02*
Y2669D01*
Y2409D02*
X2798Y2399D01*
X1949Y5770D02*
Y5792D01*
X1260Y6660D02*
X1355Y6565D01*
X1260Y6660D02*
Y6680D01*
X3534Y2951D02*
X3630Y3047D01*
X2962Y6788D02*
X3020D01*
X2744Y6880D02*
X2870D01*
X3549Y7965D02*
Y7978D01*
X3374Y7595D02*
Y7825D01*
X5372Y2998D02*
X5438D01*
X3421Y4635D02*
Y4780D01*
X1030Y5268D02*
Y5440D01*
X3790Y5570D02*
X3825Y5605D01*
X3616Y4644D02*
X3689Y4717D01*
X1315Y8919D02*
X1416Y8818D01*
X4261Y4670D02*
Y4686D01*
X4004Y4944D02*
X4261Y4686D01*
X4321Y7823D02*
X4477Y7979D01*
X4694Y4711D02*
X4751D01*
X2701Y4598D02*
X2744Y4641D01*
X4155Y5480D02*
Y5530D01*
X2787Y4350D02*
Y4437D01*
X3059Y4566D02*
Y4990D01*
X4789Y5138D02*
Y5146D01*
X3849Y4772D02*
X3961Y4660D01*
X3689Y4717D02*
Y4990D01*
X3411Y4625D02*
X3421Y4635D01*
X5115Y7343D02*
X5126D01*
X4798Y7345D02*
X4949Y7195D01*
X4803Y7990D02*
Y7990D01*
X4775Y7990D02*
X4783D01*
X3549Y7965D02*
X3689Y7825D01*
X1799Y5620D02*
X1949Y5770D01*
X2921Y5787D02*
X2921Y5787D01*
X2774Y5935D02*
X2915Y5793D01*
X2921Y5787D02*
X2935D01*
X2574Y6420D02*
X2588D01*
X2429Y6565D02*
X2574Y6420D01*
X2584Y6094D02*
X2587D01*
X2892Y6102D02*
X2932D01*
X2744Y6250D02*
X2892Y6102D01*
X2429Y6250D02*
X2584Y6094D01*
X2114Y5935D02*
X2274Y5775D01*
X2269Y5465D02*
X2272D01*
X2274Y5151D02*
X2429Y5305D01*
X2274Y4776D02*
Y5151D01*
X2150Y4651D02*
X2274Y4776D01*
X2744Y6565D02*
X2903Y6405D01*
X2150Y4354D02*
Y4651D01*
X1151Y5561D02*
Y6041D01*
X1030Y5440D02*
X1151Y5561D01*
X1360Y6250D02*
X1484D01*
X1151Y6041D02*
X1360Y6250D01*
X2114D02*
X2274Y6090D01*
X1422Y8818D02*
X1870Y8370D01*
X1416Y8818D02*
X1422D01*
X1217Y7593D02*
X1223D01*
X1401D02*
X1484Y7510D01*
X5183Y4702D02*
X5196Y4714D01*
X5128Y2753D02*
X5372Y2998D01*
X5120Y3481D02*
X5416D01*
X4978Y3623D02*
X5120Y3481D01*
X5162Y3582D02*
X5374D01*
X5079Y3665D02*
X5162Y3582D01*
X5345Y3266D02*
X5676Y3597D01*
X5345Y3027D02*
Y3266D01*
X5395Y3895D02*
X5474Y3816D01*
Y3681D02*
Y3816D01*
X5374Y3582D02*
X5474Y3681D01*
X5079Y3665D02*
Y3959D01*
X4967Y4071D02*
X5079Y3959D01*
X4978Y3623D02*
Y3889D01*
X4897Y3970D02*
X4978Y3889D01*
X4168Y3970D02*
X4897D01*
X5575Y3639D02*
Y3858D01*
X5416Y3481D02*
X5575Y3639D01*
X5395Y3895D02*
Y4055D01*
X5676Y3748D02*
X5880Y3952D01*
X5676Y3597D02*
Y3748D01*
X4949Y4449D02*
Y4990D01*
X4719Y4687D02*
X4749D01*
X5614Y4134D02*
X5718D01*
X5496Y4016D02*
X5614Y4134D01*
X5496Y3937D02*
Y4016D01*
Y3937D02*
X5575Y3858D01*
X5395Y4058D02*
X5572Y4235D01*
X5345Y3027D02*
X5356Y3016D01*
X2306Y4665D02*
X2376Y4734D01*
X2306Y4394D02*
Y4665D01*
X2376Y4734D02*
Y4937D01*
X2429Y4990D01*
X2887Y4536D02*
Y4699D01*
X2787Y4437D02*
X2887Y4536D01*
X3227Y4531D02*
X3325Y4433D01*
X3227Y4531D02*
Y4673D01*
X3219Y4680D02*
X3227Y4673D01*
X3219Y4680D02*
Y5151D01*
X3421Y4780D02*
X3534Y4893D01*
X3405Y2459D02*
Y2732D01*
X3284Y2338D02*
X3405Y2459D01*
X3284Y2197D02*
Y2338D01*
X3284Y2314D02*
Y2338D01*
X3405Y2732D02*
X3673Y3000D01*
X3534Y2951D02*
Y2993D01*
X3524Y2015D02*
Y2043D01*
Y1679D02*
Y2015D01*
X3284Y2197D02*
X3467Y2015D01*
X3524D01*
Y2043D02*
X3569Y2087D01*
X3706D01*
X3768Y2150D01*
X2846Y2665D02*
X3083D01*
X3975Y2365D02*
X4070Y2460D01*
Y3477D01*
X3960Y3587D02*
X4070Y3477D01*
X3834Y3587D02*
X3960D01*
X3673Y3748D02*
X3834Y3587D01*
X4452Y2159D02*
X4454Y2157D01*
X4277Y2159D02*
X4452D01*
X4172Y2264D02*
X4277Y2159D01*
X4172Y2264D02*
Y2676D01*
X4185Y2689D01*
Y3507D01*
X4008Y3685D02*
X4185Y3507D01*
X4273Y2392D02*
X4318Y2346D01*
X4516D01*
X4273Y2392D02*
Y2634D01*
X4287Y2647D01*
Y3549D01*
X3446Y2933D02*
X3497Y2983D01*
X5113Y8513D02*
X5122Y8504D01*
X1799Y7510D02*
X1959Y7350D01*
X1947Y7039D02*
Y7047D01*
X1264Y7315D02*
X1384Y7195D01*
X2122D02*
X2274Y7043D01*
X1212Y5403D02*
X1429Y5620D01*
X1212Y4712D02*
Y5403D01*
X1384Y7195D02*
X1484D01*
X2589Y4803D02*
Y5151D01*
X2476Y4690D02*
X2589Y4803D01*
X2887Y4699D02*
X2904Y4717D01*
X2887Y4699D02*
X2887Y4699D01*
X4793Y7980D02*
X4793Y7980D01*
X4803Y7970D02*
X4949Y7825D01*
X4519Y8254D02*
X4634Y8140D01*
X2269Y6724D02*
X2274D01*
X1799Y6877D02*
X1959Y6717D01*
X1400Y6880D02*
X1484D01*
X1951Y6413D02*
X1961D01*
X2114Y6565D02*
X2274Y6405D01*
X2789Y7150D02*
X3059D01*
X3845Y7535D02*
Y7983D01*
X3825Y7515D02*
X3845Y7535D01*
X3825Y5605D02*
Y7515D01*
X3944Y6004D02*
Y7468D01*
X1355Y6565D02*
X1484D01*
X3944Y7468D02*
X4141Y7664D01*
X4114Y6075D02*
X4143D01*
X3945Y5740D02*
Y6003D01*
Y5740D02*
X4155Y5530D01*
X1799Y6565D02*
X1951Y6413D01*
X2429Y5935D02*
X2574Y5790D01*
X5009Y4172D02*
X5275Y3906D01*
X4010Y4172D02*
X5009D01*
X4126Y4071D02*
X4967D01*
X2306Y4394D02*
X2307Y4394D01*
X2904Y4717D02*
Y5151D01*
X4164Y4926D02*
Y5151D01*
Y4926D02*
X4255Y4836D01*
X4318D01*
X3325Y4433D02*
X3750D01*
X4823Y1764D02*
Y2445D01*
X4535Y1960D02*
X4574Y1921D01*
Y1585D02*
Y1921D01*
X4570Y4836D02*
X4694Y4711D01*
X4570Y4836D02*
X4570D01*
X4415Y4990D02*
X4570Y4836D01*
X4319Y4990D02*
X4415D01*
X4703Y4687D02*
X4719D01*
X4713Y4693D02*
X4719Y4687D01*
X3849Y4772D02*
Y5151D01*
X4004Y4944D02*
Y4990D01*
X4318Y4836D02*
X4437Y4717D01*
X3750Y4433D02*
X4010Y4172D01*
X4161Y8328D02*
Y8331D01*
Y7983D02*
Y8328D01*
Y8331D02*
X4190Y8360D01*
X3944Y6004D02*
X3945Y6003D01*
X3689Y8140D02*
X3845Y7983D01*
X5128Y2432D02*
Y2753D01*
X4820Y2448D02*
X4823Y2445D01*
X4724Y2543D02*
X4820Y2448D01*
Y2640D01*
X5718Y4134D02*
X5822Y4239D01*
Y4585D01*
X5721Y4281D02*
Y4686D01*
X5676Y4235D02*
X5721Y4281D01*
X5572Y4235D02*
X5676D01*
X5822Y4585D02*
X5837Y4600D01*
X5844D01*
X5949Y4705D01*
X5950Y4705D01*
X6090D01*
X6201Y4816D01*
X6202D01*
X5390Y4050D02*
X5395Y4055D01*
Y4058D01*
X5721Y4686D02*
X5910Y4875D01*
X6020D01*
X4870Y4370D02*
X4890Y4390D01*
X5110D01*
X6202Y4816D02*
Y4960D01*
X5275Y3800D02*
Y3906D01*
Y3800D02*
X5283Y3791D01*
X5992Y5169D02*
X6202Y4960D01*
X1210Y4710D02*
X1212Y4712D01*
X1429Y5620D02*
X1484D01*
X1331Y5781D02*
X1548D01*
X1330Y5780D02*
X1331Y5781D01*
X1260Y6410D02*
X1542D01*
X1548Y5781D02*
X1638Y5871D01*
Y6043D01*
X1542Y6410D02*
X1640Y6312D01*
Y6188D02*
Y6312D01*
X1484Y6032D02*
X1640Y6188D01*
X1484Y5935D02*
Y6032D01*
X1638Y6043D02*
X1799Y6204D01*
Y6250D01*
X2484Y8370D02*
X2510D01*
X2429Y8315D02*
X2484Y8370D01*
X2429Y8140D02*
Y8315D01*
X1910Y8370D02*
X1912D01*
X1870Y8370D02*
X1910D01*
X3689Y8140D02*
X3734D01*
X4141Y7664D02*
X4452D01*
X4612Y7825D01*
X4634D01*
X4164Y5151D02*
X4319Y5305D01*
X3534Y4893D02*
Y5151D01*
X2744Y4641D02*
Y4990D01*
X2728Y4975D02*
X2744Y4990D01*
X3219Y5151D02*
X3374Y5305D01*
X2589Y5151D02*
X2744Y5305D01*
X2904Y5151D02*
X3059Y5305D01*
X2114Y7510D02*
X2269Y7354D01*
X1799Y7195D02*
X1947Y7047D01*
X2114Y7195D02*
X2122D01*
X1799Y6877D02*
Y6880D01*
X2114D02*
X2120D01*
X2114D02*
X2269Y6724D01*
X2429Y6878D02*
Y6880D01*
Y6878D02*
X2579Y6728D01*
X2744Y6880D02*
X2750D01*
X2114Y5620D02*
X2269Y5465D01*
X2429Y5620D02*
X2584Y5465D01*
X2429Y7195D02*
X2584Y7039D01*
X2429Y7510D02*
X2584Y7354D01*
X2744Y7510D02*
X2899Y7354D01*
X5108Y5776D02*
X5263Y5620D01*
X4793Y5776D02*
X4949Y5620D01*
X4478Y5776D02*
X4634Y5620D01*
X5423Y6091D02*
X5578Y5935D01*
X5108Y6091D02*
X5263Y5935D01*
X4793Y6091D02*
X4949Y5935D01*
X4478Y6091D02*
X4634Y5935D01*
X4478Y7351D02*
X4634Y7195D01*
X2114Y8140D02*
Y8168D01*
X1912Y8370D02*
X2114Y8168D01*
X2744Y7195D02*
X2789Y7150D01*
X2744Y5935D02*
X2774D01*
X4949Y6880D02*
X5104Y7036D01*
X4634Y6880D02*
X4789Y7036D01*
X4949Y6565D02*
X5104Y6721D01*
X4634Y6565D02*
X4789Y6721D01*
X4319Y7195D02*
X4480Y7033D01*
Y6945D02*
Y7033D01*
X4479Y6944D02*
X4480Y6945D01*
X4479Y6404D02*
Y6944D01*
X4163Y5780D02*
X4319Y5935D01*
X4947Y6252D02*
X5102Y6408D01*
X4110Y6357D02*
X4319Y6565D01*
X4110Y6083D02*
Y6357D01*
X4274Y6880D02*
X4319D01*
X4146Y6752D02*
X4274Y6880D01*
X4254Y7195D02*
X4319D01*
X4819Y8269D02*
X4949Y8140D01*
X4004Y7825D02*
X4161Y7983D01*
X3689Y5283D02*
Y5305D01*
X3372D02*
X3374D01*
X3534Y5151D02*
X3689Y5305D01*
X3849Y5151D02*
X4004Y5305D01*
X4319Y5248D02*
Y5305D01*
X4396Y1933D02*
X4417D01*
X3673Y3748D02*
X3800D01*
X3846Y2354D02*
X3956D01*
X4008Y3685D02*
Y3953D01*
X4126Y4071D01*
X4109Y3727D02*
X4287Y3549D01*
X4109Y3727D02*
Y3911D01*
X4168Y3970D01*
X5016Y3000D02*
X5024Y3008D01*
X4618Y3000D02*
X5016D01*
X2839Y2657D02*
X2846Y2665D01*
X4516Y2543D02*
X4724D01*
D26*
X2780Y1133D02*
X2784Y1129D01*
X2293Y3531D02*
X2308Y3546D01*
X1921Y3421D02*
X2031Y3531D01*
X3624Y1329D02*
X3642Y1346D01*
X3611Y1341D02*
X3620Y1350D01*
X1280Y2820D02*
Y3195D01*
X2177Y1469D02*
X2433Y1724D01*
X2059Y601D02*
Y1484D01*
X1280Y2820D02*
X1407Y2693D01*
X1256Y1315D02*
X1386Y1445D01*
X4470Y4370D02*
X4530Y4430D01*
X2206Y3885D02*
X2309Y3782D01*
X5695Y1330D02*
X5720Y1355D01*
X5545Y1126D02*
Y1330D01*
X5522D02*
X5545D01*
X2031Y3531D02*
X2050Y3550D01*
X2031Y3531D02*
X2293D01*
X1921Y3181D02*
Y3421D01*
X2025Y3885D02*
X2206D01*
X1210Y4257D02*
X1374Y4421D01*
X1210Y3250D02*
Y4257D01*
X1572Y3539D02*
X1767Y3734D01*
Y4072D02*
X1807Y4113D01*
X1767Y3734D02*
Y4072D01*
X1524Y3539D02*
X1572D01*
X1524D02*
X1720Y3343D01*
Y3201D02*
Y3343D01*
X3580Y1130D02*
Y1261D01*
X2780Y1133D02*
Y1406D01*
X5545Y1330D02*
Y1355D01*
X4253Y4370D02*
X4470D01*
X5545Y1330D02*
X5695D01*
X5545Y1355D02*
X5550Y1360D01*
X5179Y760D02*
X5545Y1126D01*
X5537Y4430D02*
Y4702D01*
X5540Y4705D01*
X4520Y4370D02*
X4540Y4390D01*
X1210Y3230D02*
Y3250D01*
Y3230D02*
X1245Y3195D01*
X1256Y1240D02*
Y1315D01*
X1250Y580D02*
Y620D01*
Y580D02*
X3030D01*
X2059Y601D02*
X2070Y590D01*
X3030Y580D02*
X3580Y1130D01*
X1250Y620D02*
X1256Y626D01*
Y1230D01*
X1407Y2693D02*
X1410Y2690D01*
X1407Y2693D02*
X1583D01*
X1390D02*
X1407D01*
X1583D02*
X1695Y2581D01*
X2055Y1488D02*
X2059Y1484D01*
X2067Y1469D02*
Y1496D01*
Y1469D02*
X2177D01*
X2780Y1406D02*
Y1705D01*
X5470Y5128D02*
X5494D01*
X1592D02*
X1610Y5110D01*
Y4732D02*
Y5110D01*
X5494Y5128D02*
X5850Y5484D01*
D27*
X2772Y3319D02*
Y3610D01*
X2772Y3610D01*
X2787Y3024D02*
X3118D01*
X3534Y1307D02*
X3580Y1261D01*
X3595Y1298D02*
X3649D01*
X3114Y3583D02*
X3299Y3768D01*
X5593Y5620D02*
X5756Y5783D01*
X3299Y4024D02*
X3484Y4209D01*
X3290Y2507D02*
Y2811D01*
X3169Y2386D02*
X3290Y2507D01*
X3169Y2016D02*
Y2386D01*
X3292Y1600D02*
Y1894D01*
X3169Y2016D02*
X3292Y1894D01*
Y1600D02*
X3595Y1298D01*
X3238Y2863D02*
X3290Y2811D01*
X3534Y1307D02*
X3580D01*
Y1261D02*
X3590Y1251D01*
X3235Y2863D02*
X3238D01*
X5578Y5620D02*
X5593D01*
X3768Y1953D02*
X3909Y1811D01*
Y1705D02*
Y1811D01*
X3527Y3374D02*
X3673D01*
X3324Y3170D02*
X3527Y3374D01*
X3324Y3164D02*
Y3170D01*
X3271Y3111D02*
X3324Y3164D01*
X3265Y3111D02*
X3271D01*
X3114Y2984D02*
X3235Y2863D01*
X3146Y2992D02*
X3265Y3111D01*
X2787Y3024D02*
Y3280D01*
X2772Y3295D02*
X2787Y3280D01*
X3299Y3768D02*
Y4024D01*
D28*
X4339Y1135D02*
Y1428D01*
X4063Y1705D02*
X4339Y1428D01*
X3941Y1705D02*
X4063D01*
D29*
X1175Y3215D02*
X1210Y3250D01*
X1175Y1330D02*
Y3215D01*
X3580Y1130D02*
X3589Y1121D01*
X1175Y1330D02*
X1210Y1295D01*
D30*
X5450Y8440D02*
X5470Y8420D01*
X5880Y3325D02*
X5900Y3305D01*
X5585Y3270D02*
X5617Y3302D01*
X4485Y794D02*
X4574Y883D01*
X2067Y2072D02*
X2091Y2097D01*
X2028Y1787D02*
X2065Y1825D01*
X1677Y1148D02*
Y1425D01*
Y1148D02*
X1691Y1134D01*
X2067Y1827D02*
X2173Y1933D01*
X2067Y1827D02*
Y2072D01*
Y1823D02*
Y1827D01*
X4574Y883D02*
Y1231D01*
X5470Y8002D02*
Y8420D01*
X5617Y3302D02*
X5875D01*
X5880Y3325D02*
Y3598D01*
X1235Y1240D02*
X1256D01*
X1524Y3894D02*
Y4118D01*
X1528Y4122D01*
X2173Y1933D02*
X2421D01*
X2065Y1825D02*
X2067Y1823D01*
D31*
X3157Y1378D02*
Y1838D01*
X3134Y1112D02*
Y1406D01*
X3091Y3583D02*
X3097D01*
X1390Y2315D02*
X1890D01*
X1500Y2988D02*
X1622Y2866D01*
X1390Y2065D02*
Y2315D01*
Y2065D02*
X1423Y2032D01*
X2850Y1953D02*
Y2114D01*
X2835Y2130D02*
X2850Y2114D01*
X3063Y1933D02*
X3157Y1838D01*
X2835Y1933D02*
X3063D01*
X3129Y1107D02*
X3134Y1112D01*
X1890Y2315D02*
X1921Y2346D01*
Y2551D01*
X1622Y2866D02*
X1921D01*
X3087Y3579D02*
X3091Y3583D01*
D32*
X2138Y3148D02*
X2361Y3372D01*
X1394Y1811D02*
X1425Y1780D01*
X2776Y3961D02*
X3098D01*
X2630Y4019D02*
X2791D01*
X2248Y3117D02*
X2403Y3272D01*
X2248Y3052D02*
Y3117D01*
X2193Y2996D02*
X2248Y3052D01*
X2193Y2642D02*
Y2996D01*
X2571Y3434D02*
Y3960D01*
X2408Y3272D02*
X2571Y3434D01*
X2403Y3272D02*
X2408D01*
X2361Y3372D02*
X2364D01*
X2412Y3420D01*
X2414Y3419D02*
X2471Y3475D01*
Y3857D01*
X2571Y3960D02*
X2630Y4019D01*
X1877Y4288D02*
X2078Y4087D01*
X2241D01*
X2471Y3857D01*
X1870Y4288D02*
X1877D01*
X2094Y3181D02*
X2118D01*
X2248Y2189D02*
X2307Y2130D01*
X2182Y2255D02*
X2266Y2170D01*
X2019Y2255D02*
X2182D01*
X1960Y2195D02*
X2019Y2255D01*
X1749Y2195D02*
X1960D01*
X1630Y2075D02*
X1749Y2195D01*
X1630Y1803D02*
Y2075D01*
X1772Y4386D02*
X1870Y4288D01*
X2307Y2130D02*
X2421D01*
X1425Y1780D02*
X1677D01*
X2122Y2571D02*
X2193Y2642D01*
D33*
X3571Y2557D02*
X3750D01*
X3507Y2493D02*
X3571Y2557D01*
X3507Y2320D02*
Y2493D01*
X3454Y2268D02*
X3507Y2320D01*
X4430Y774D02*
X4504D01*
X3921Y1283D02*
X4430Y774D01*
X3921Y1283D02*
Y1319D01*
D34*
X2269Y7354D02*
X2272D01*
D35*
X3126Y3319D02*
X3138D01*
X3338Y3519D01*
Y3561D01*
X3536Y3760D01*
X3555D01*
D36*
X2453Y2514D02*
D03*
X2462Y2928D02*
D03*
D37*
X5770Y760D02*
D03*
X5179D02*
D03*
X4510Y770D02*
D03*
X3919D02*
D03*
D38*
X2283Y8701D02*
D03*
X3858D02*
D03*
X2677D02*
D03*
X3071D02*
D03*
X3465D02*
D03*
X3832Y9083D02*
D03*
D39*
X1260Y6680D02*
D03*
X5875Y5507D02*
D03*
X4794Y5150D02*
D03*
X4002Y4677D02*
D03*
X4245Y4671D02*
D03*
X3627Y4659D02*
D03*
X3407Y4660D02*
D03*
X5109Y7346D02*
D03*
X4797Y7351D02*
D03*
X4803Y7983D02*
D03*
X3535Y7974D02*
D03*
X3372Y7595D02*
D03*
X1952Y6087D02*
D03*
X1956Y5780D02*
D03*
X2594Y5777D02*
D03*
X2935Y5787D02*
D03*
X2595Y6411D02*
D03*
X2588Y6085D02*
D03*
X2932Y6102D02*
D03*
X2274Y5775D02*
D03*
X2272Y5465D02*
D03*
X2476Y4594D02*
D03*
X2799Y4366D02*
D03*
X2903Y6405D02*
D03*
X2962Y6788D02*
D03*
X1240Y6387D02*
D03*
X2274Y6090D02*
D03*
X1307Y8890D02*
D03*
X1238Y7572D02*
D03*
X1223Y8398D02*
D03*
X5536Y4703D02*
D03*
X5185Y4698D02*
D03*
X5090Y3313D02*
D03*
X5272Y3752D02*
D03*
X4749Y4687D02*
D03*
X5605Y3270D02*
D03*
X2118Y4291D02*
D03*
X1807Y4118D02*
D03*
X2357Y4376D02*
D03*
X1522Y4155D02*
D03*
X2301Y3786D02*
D03*
X2294Y3541D02*
D03*
X3484Y4209D02*
D03*
X2798Y2410D02*
D03*
X3454Y2268D02*
D03*
X3137Y1136D02*
D03*
X4311Y1135D02*
D03*
X5122Y8504D02*
D03*
X2779Y1132D02*
D03*
X1959Y7350D02*
D03*
X1947Y7039D02*
D03*
X1264Y7315D02*
D03*
X2274Y7043D02*
D03*
X1321Y5780D02*
D03*
X2920Y5490D02*
D03*
X2587Y5465D02*
D03*
X2717Y4606D02*
D03*
X4789Y7038D02*
D03*
X4476Y7351D02*
D03*
X4787Y7666D02*
D03*
X4474Y7976D02*
D03*
X4522Y8350D02*
D03*
X1682Y1166D02*
D03*
X2090Y2085D02*
D03*
X1418Y2072D02*
D03*
X1608Y4703D02*
D03*
X2585Y7671D02*
D03*
X2272Y7354D02*
D03*
X2587Y7354D02*
D03*
X2274Y6724D02*
D03*
X2593Y7037D02*
D03*
X2586Y6721D02*
D03*
X1959Y6717D02*
D03*
X1961Y6413D02*
D03*
X2274Y6405D02*
D03*
X3059Y7150D02*
D03*
X2902Y7354D02*
D03*
X2893Y7669D02*
D03*
X4152Y7372D02*
D03*
X4122Y7071D02*
D03*
X4126Y6764D02*
D03*
X4114Y6075D02*
D03*
X4163Y5777D02*
D03*
X4470Y4680D02*
D03*
X4835Y8343D02*
D03*
X3057Y4602D02*
D03*
X1029Y5268D02*
D03*
X4253Y4370D02*
D03*
X1265Y3180D02*
D03*
X5460Y8425D02*
D03*
X4861Y2664D02*
D03*
X6020Y4875D02*
D03*
X5992Y5169D02*
D03*
X1200Y4687D02*
D03*
X1260Y7017D02*
D03*
X2510Y8370D02*
D03*
X1280Y8640D02*
D03*
X5752Y5772D02*
D03*
X4138Y5488D02*
D03*
X3819Y5547D02*
D03*
X5106Y5776D02*
D03*
X4791D02*
D03*
X5421Y6091D02*
D03*
X5106D02*
D03*
X4791D02*
D03*
X5104Y7038D02*
D03*
Y6723D02*
D03*
X4789D02*
D03*
X4476Y5776D02*
D03*
Y6091D02*
D03*
X5102Y6410D02*
D03*
X4784Y6402D02*
D03*
X4479Y5470D02*
D03*
X1516Y2980D02*
D03*
M02*
