G04 Layer_Color=16711935*
%FSLAX24Y24*%
%MOIN*%
G70*
G01*
G75*
%ADD37C,0.0530*%
%ADD49R,0.0098X0.0236*%
%ADD50R,0.0236X0.0098*%
%ADD55R,0.0256X0.0237*%
%ADD59R,0.0237X0.0256*%
%ADD69C,0.0320*%
%ADD70C,0.0350*%
%ADD71C,0.0020*%
%ADD72C,0.0190*%
G04:AMPARAMS|DCode=73|XSize=35.5mil|YSize=27.6mil|CornerRadius=7.4mil|HoleSize=0mil|Usage=FLASHONLY|Rotation=90.000|XOffset=0mil|YOffset=0mil|HoleType=Round|Shape=RoundedRectangle|*
%AMROUNDEDRECTD73*
21,1,0.0355,0.0128,0,0,90.0*
21,1,0.0207,0.0276,0,0,90.0*
1,1,0.0148,0.0064,0.0103*
1,1,0.0148,0.0064,-0.0103*
1,1,0.0148,-0.0064,-0.0103*
1,1,0.0148,-0.0064,0.0103*
%
%ADD73ROUNDEDRECTD73*%
%ADD74R,0.0276X0.0355*%
%ADD75R,0.0320X0.0320*%
%ADD76R,0.0320X0.0320*%
%ADD77R,0.1091X0.0528*%
%ADD78R,0.0465X0.0599*%
%ADD79R,0.0217X0.0217*%
%ADD80R,0.1240X0.1240*%
D37*
X5770Y760D02*
D03*
X5179D02*
D03*
X4510Y770D02*
D03*
X3919D02*
D03*
D49*
X4610Y4402D02*
D03*
X4413D02*
D03*
X4217D02*
D03*
X4020D02*
D03*
X3823D02*
D03*
X3626D02*
D03*
X3429D02*
D03*
X3232D02*
D03*
Y2512D02*
D03*
X3429D02*
D03*
X3626D02*
D03*
X3823D02*
D03*
X4020D02*
D03*
X4217D02*
D03*
X4413D02*
D03*
X4610D02*
D03*
D50*
X2976Y4146D02*
D03*
Y3949D02*
D03*
Y3752D02*
D03*
Y3555D02*
D03*
Y3358D02*
D03*
Y3161D02*
D03*
Y2965D02*
D03*
Y2768D02*
D03*
X4866D02*
D03*
Y2965D02*
D03*
Y3161D02*
D03*
Y3358D02*
D03*
Y3555D02*
D03*
Y3752D02*
D03*
Y3949D02*
D03*
Y4146D02*
D03*
D55*
X5768Y7098D02*
D03*
Y7453D02*
D03*
X1382Y2575D02*
D03*
Y2929D02*
D03*
X2759Y7652D02*
D03*
Y8006D02*
D03*
X2457Y7645D02*
D03*
Y7999D02*
D03*
X5470Y4623D02*
D03*
Y4977D02*
D03*
X5350Y2493D02*
D03*
Y2847D02*
D03*
X5645Y3993D02*
D03*
Y4347D02*
D03*
X3094Y5224D02*
D03*
Y4870D02*
D03*
X2783Y5217D02*
D03*
Y4862D02*
D03*
X3695Y5262D02*
D03*
Y4908D02*
D03*
X3400Y5257D02*
D03*
Y4903D02*
D03*
X5620Y1772D02*
D03*
Y2127D02*
D03*
X5330Y1773D02*
D03*
Y2127D02*
D03*
X5910Y1453D02*
D03*
Y1807D02*
D03*
X4743Y1340D02*
D03*
Y1695D02*
D03*
X5042Y1768D02*
D03*
Y2123D02*
D03*
X3508Y1650D02*
D03*
Y2004D02*
D03*
X3213Y1654D02*
D03*
Y2008D02*
D03*
X2921Y1780D02*
D03*
Y2134D02*
D03*
X3803Y1776D02*
D03*
Y2130D02*
D03*
X4091Y1772D02*
D03*
Y2126D02*
D03*
X5640Y2493D02*
D03*
Y2847D02*
D03*
X5915Y3462D02*
D03*
Y3108D02*
D03*
D59*
X1583Y6618D02*
D03*
X1937D02*
D03*
X1583Y6913D02*
D03*
X1937D02*
D03*
X1583Y5453D02*
D03*
X1937D02*
D03*
X1580Y8680D02*
D03*
X1934D02*
D03*
X1857Y4200D02*
D03*
X1503D02*
D03*
X1839Y3858D02*
D03*
X1484D02*
D03*
X2059Y2917D02*
D03*
X1705D02*
D03*
X2067Y2610D02*
D03*
X1713D02*
D03*
X2925Y1488D02*
D03*
X2571D02*
D03*
X1580Y4860D02*
D03*
X1934D02*
D03*
X3498Y6142D02*
D03*
X3852D02*
D03*
X3497Y6429D02*
D03*
X3852D02*
D03*
X3500Y6728D02*
D03*
X3854D02*
D03*
X3500Y7331D02*
D03*
X3854D02*
D03*
X2594Y6579D02*
D03*
X2949D02*
D03*
X2594Y6874D02*
D03*
X2949D02*
D03*
X3500Y7031D02*
D03*
X3854D02*
D03*
X1583Y4550D02*
D03*
X1937D02*
D03*
X1583Y5752D02*
D03*
X1937D02*
D03*
X1583Y6331D02*
D03*
X1937D02*
D03*
X1583Y6043D02*
D03*
X1937D02*
D03*
X1583Y7496D02*
D03*
X1937D02*
D03*
X1583Y7799D02*
D03*
X1937D02*
D03*
X1583Y8087D02*
D03*
X1937D02*
D03*
X1583Y8382D02*
D03*
X1937D02*
D03*
X1583Y7201D02*
D03*
X1937D02*
D03*
X1580Y5150D02*
D03*
X1934D02*
D03*
X4197Y8406D02*
D03*
X4551D02*
D03*
X4200Y8694D02*
D03*
X4554D02*
D03*
X3496Y5825D02*
D03*
X3851D02*
D03*
X4772Y7815D02*
D03*
X5126D02*
D03*
X4776Y7516D02*
D03*
X5130D02*
D03*
X5394Y5276D02*
D03*
X5749D02*
D03*
X4773Y5275D02*
D03*
X5127D02*
D03*
X4403Y1994D02*
D03*
X4757D02*
D03*
X4112Y1313D02*
D03*
X4466D02*
D03*
X5357Y8830D02*
D03*
X5003D02*
D03*
X5158Y3225D02*
D03*
X5512D02*
D03*
D69*
X2453Y2514D02*
D03*
X2462Y2928D02*
D03*
D70*
X2283Y8701D02*
D03*
X3858D02*
D03*
X2677D02*
D03*
X3071D02*
D03*
X3465D02*
D03*
X3832Y9083D02*
D03*
D71*
X630Y5173D02*
D03*
X3583Y9504D02*
D03*
X6535Y5173D02*
D03*
D72*
X2230Y5080D02*
D03*
X2217Y7831D02*
D03*
X2240Y8380D02*
D03*
X3249Y6145D02*
D03*
X1326Y3449D02*
D03*
X5769Y7707D02*
D03*
X2274Y5775D02*
D03*
X2272Y5465D02*
D03*
X2274Y6090D02*
D03*
X2085Y3900D02*
D03*
X2274Y7043D02*
D03*
X2920Y5490D02*
D03*
X3244Y6445D02*
D03*
X2272Y7354D02*
D03*
X2274Y6724D02*
D03*
X2274Y6405D02*
D03*
X3255Y7310D02*
D03*
X3105Y7515D02*
D03*
X2435Y6254D02*
D03*
X5378Y7532D02*
D03*
D73*
X5071Y6681D02*
D03*
D74*
X5720D02*
D03*
X5071Y6150D02*
D03*
X5720D02*
D03*
D75*
X5770Y8745D02*
D03*
Y8195D02*
D03*
D76*
X1655Y3450D02*
D03*
X2205D02*
D03*
D77*
X1846Y955D02*
D03*
Y2061D02*
D03*
D78*
X2671Y965D02*
D03*
X3368D02*
D03*
D79*
X4505Y5597D02*
D03*
Y5243D02*
D03*
X5930Y4587D02*
D03*
Y4233D02*
D03*
X5910Y2457D02*
D03*
Y2103D02*
D03*
X2642Y2134D02*
D03*
Y1780D02*
D03*
D80*
X3921Y3457D02*
D03*
M02*
