G04 Layer_Color=128*
%FSLAX24Y24*%
%MOIN*%
G70*
G01*
G75*
%ADD10R,0.0236X0.0217*%
%ADD14R,0.0217X0.0236*%
G04:AMPARAMS|DCode=41|XSize=33.5mil|YSize=25.6mil|CornerRadius=6.4mil|HoleSize=0mil|Usage=FLASHONLY|Rotation=90.000|XOffset=0mil|YOffset=0mil|HoleType=Round|Shape=RoundedRectangle|*
%AMROUNDEDRECTD41*
21,1,0.0335,0.0128,0,0,90.0*
21,1,0.0207,0.0256,0,0,90.0*
1,1,0.0128,0.0064,0.0103*
1,1,0.0128,0.0064,-0.0103*
1,1,0.0128,-0.0064,-0.0103*
1,1,0.0128,-0.0064,0.0103*
%
%ADD41ROUNDEDRECTD41*%
%ADD42R,0.0256X0.0335*%
%ADD43R,0.0300X0.0300*%
%ADD44R,0.0300X0.0300*%
%ADD45R,0.1071X0.0508*%
%ADD46R,0.0445X0.0579*%
%ADD47R,0.0197X0.0197*%
%ADD49R,0.0098X0.0236*%
%ADD50R,0.0236X0.0098*%
%ADD81R,0.0551X0.0551*%
%ADD82R,0.0551X0.0591*%
D10*
X5768Y7098D02*
D03*
Y7453D02*
D03*
X1382Y2575D02*
D03*
Y2929D02*
D03*
X2759Y7652D02*
D03*
Y8006D02*
D03*
X2457Y7645D02*
D03*
Y7999D02*
D03*
X5470Y4623D02*
D03*
Y4977D02*
D03*
X5350Y2493D02*
D03*
Y2847D02*
D03*
X5645Y3993D02*
D03*
Y4347D02*
D03*
X3094Y5224D02*
D03*
Y4870D02*
D03*
X2783Y5217D02*
D03*
Y4862D02*
D03*
X3695Y5262D02*
D03*
Y4908D02*
D03*
X3400Y5257D02*
D03*
Y4903D02*
D03*
X5620Y1772D02*
D03*
Y2127D02*
D03*
X5330Y1773D02*
D03*
Y2127D02*
D03*
X5910Y1453D02*
D03*
Y1807D02*
D03*
X4743Y1340D02*
D03*
Y1695D02*
D03*
X5042Y1768D02*
D03*
Y2123D02*
D03*
X3508Y1650D02*
D03*
Y2004D02*
D03*
X3213Y1654D02*
D03*
Y2008D02*
D03*
X2921Y1780D02*
D03*
Y2134D02*
D03*
X3803Y1776D02*
D03*
Y2130D02*
D03*
X4091Y1772D02*
D03*
Y2126D02*
D03*
X5640Y2493D02*
D03*
Y2847D02*
D03*
X5915Y3462D02*
D03*
Y3108D02*
D03*
D14*
X1583Y6618D02*
D03*
X1937D02*
D03*
X1583Y6913D02*
D03*
X1937D02*
D03*
X1583Y5453D02*
D03*
X1937D02*
D03*
X1580Y8680D02*
D03*
X1934D02*
D03*
X1857Y4200D02*
D03*
X1503D02*
D03*
X1839Y3858D02*
D03*
X1484D02*
D03*
X2059Y2917D02*
D03*
X1705D02*
D03*
X2067Y2610D02*
D03*
X1713D02*
D03*
X2925Y1488D02*
D03*
X2571D02*
D03*
X1580Y4860D02*
D03*
X1934D02*
D03*
X3498Y6142D02*
D03*
X3852D02*
D03*
X3497Y6429D02*
D03*
X3852D02*
D03*
X3500Y6728D02*
D03*
X3854D02*
D03*
X3500Y7331D02*
D03*
X3854D02*
D03*
X2594Y6579D02*
D03*
X2949D02*
D03*
X2594Y6874D02*
D03*
X2949D02*
D03*
X3500Y7031D02*
D03*
X3854D02*
D03*
X1583Y4550D02*
D03*
X1937D02*
D03*
X1583Y5752D02*
D03*
X1937D02*
D03*
X1583Y6331D02*
D03*
X1937D02*
D03*
X1583Y6043D02*
D03*
X1937D02*
D03*
X1583Y7496D02*
D03*
X1937D02*
D03*
X1583Y7799D02*
D03*
X1937D02*
D03*
X1583Y8087D02*
D03*
X1937D02*
D03*
X1583Y8382D02*
D03*
X1937D02*
D03*
X1583Y7201D02*
D03*
X1937D02*
D03*
X1580Y5150D02*
D03*
X1934D02*
D03*
X4197Y8406D02*
D03*
X4551D02*
D03*
X4200Y8694D02*
D03*
X4554D02*
D03*
X3496Y5825D02*
D03*
X3851D02*
D03*
X4772Y7815D02*
D03*
X5126D02*
D03*
X4776Y7516D02*
D03*
X5130D02*
D03*
X5394Y5276D02*
D03*
X5749D02*
D03*
X4773Y5275D02*
D03*
X5127D02*
D03*
X4403Y1994D02*
D03*
X4757D02*
D03*
X4112Y1313D02*
D03*
X4466D02*
D03*
X5357Y8830D02*
D03*
X5003D02*
D03*
X5158Y3225D02*
D03*
X5512D02*
D03*
D41*
X5071Y6681D02*
D03*
D42*
X5720D02*
D03*
X5071Y6150D02*
D03*
X5720D02*
D03*
D43*
X5770Y8745D02*
D03*
Y8195D02*
D03*
D44*
X1655Y3450D02*
D03*
X2205D02*
D03*
D45*
X1846Y955D02*
D03*
Y2061D02*
D03*
D46*
X2671Y965D02*
D03*
X3368D02*
D03*
D47*
X4505Y5597D02*
D03*
Y5243D02*
D03*
X5930Y4587D02*
D03*
Y4233D02*
D03*
X5910Y2457D02*
D03*
Y2103D02*
D03*
X2642Y2134D02*
D03*
Y1780D02*
D03*
D49*
X4610Y4402D02*
D03*
X4413D02*
D03*
X4217D02*
D03*
X4020D02*
D03*
X3823D02*
D03*
X3626D02*
D03*
X3429D02*
D03*
X3232D02*
D03*
Y2512D02*
D03*
X3429D02*
D03*
X3626D02*
D03*
X3823D02*
D03*
X4020D02*
D03*
X4217D02*
D03*
X4413D02*
D03*
X4610D02*
D03*
D50*
X2976Y4146D02*
D03*
Y3949D02*
D03*
Y3752D02*
D03*
Y3555D02*
D03*
Y3358D02*
D03*
Y3161D02*
D03*
Y2965D02*
D03*
Y2768D02*
D03*
X4866D02*
D03*
Y2965D02*
D03*
Y3161D02*
D03*
Y3358D02*
D03*
Y3555D02*
D03*
Y3752D02*
D03*
Y3949D02*
D03*
Y4146D02*
D03*
D81*
X4236Y3772D02*
D03*
X3606Y3142D02*
D03*
Y3772D02*
D03*
D82*
X4236Y3161D02*
D03*
M02*
